# Blender v2.82 (sub 7) OBJ File: 'tiles_004.blend'
# www.blender.org
mtllib tile_clear_01.mtl
o Clear_Cube.013
v 1.025000 0.016348 -1.025000
v 1.025000 0.016348 1.025000
v -1.025000 0.016348 -1.025000
v -1.025000 0.016348 1.025000
v -1.025000 -1.299069 1.025000
v 1.025000 -1.299069 -1.025000
v 1.025000 -1.299069 1.025000
v -1.025000 -1.299069 -1.025000
vt 0.233463 0.467896
vt 0.383268 0.467896
vt 0.383268 0.701844
vt 0.233463 0.701844
vt 0.700389 0.000000
vt 0.700389 0.233948
vt 0.466926 0.233948
vt 0.466926 0.000000
vt 0.466926 0.467896
vt 0.616731 0.467896
vt 0.616731 0.701844
vt 0.466926 0.701844
vt 0.850194 0.000000
vt 0.850194 0.233948
vt 0.700389 0.233948
vt 0.700389 0.000000
vt 0.616731 0.701844
vt 0.616731 0.467896
vt 0.766537 0.467896
vt 0.766537 0.701844
vt 0.000000 0.701844
vt 0.000000 0.467896
vt 0.233463 0.467896
vt 0.233463 0.701844
vn 0.5773 0.5773 0.5773
vn 0.5773 -0.5773 0.5773
vn 0.5773 -0.5773 -0.5773
vn 0.5773 0.5773 -0.5773
vn -0.5773 0.5773 -0.5773
vn -0.5773 0.5773 0.5773
vn -0.5773 -0.5773 -0.5773
vn -0.5773 -0.5773 0.5773
usemtl Material.001
s 1
f 2/1/1 7/2/2 6/3/3 1/4/4
f 2/5/1 1/6/4 3/7/5 4/8/6
f 1/9/4 6/10/3 8/11/7 3/12/5
f 8/13/7 5/14/8 4/15/6 3/16/5
f 5/17/8 7/18/2 2/19/1 4/20/6
f 5/21/8 8/22/7 6/23/3 7/24/2
