# Blender v2.82 (sub 7) OBJ File: 'tiles_004.blend'
# www.blender.org
mtllib water_corner_outer_01.mtl
o Water_Corner_Outer_Cube.015
v -0.982246 -0.149491 0.797732
v -0.797732 -0.149491 0.982245
v -0.797732 -0.021921 0.797732
v -0.797732 -0.149491 0.067755
v -0.982245 -0.149491 0.252269
v -0.797732 -0.021921 0.252269
v -0.067755 -0.149491 0.797731
v -0.252269 -0.021921 0.797732
v -0.252269 -0.149491 0.982246
v -0.067755 -0.467176 0.252269
v -0.252269 -0.594745 0.252269
v -0.252269 -0.467176 0.067755
v -0.252269 -0.149491 0.067755
v -0.252269 -0.021921 0.252269
v -0.067755 -0.149491 0.252269
v -0.067755 -0.467176 0.797732
v -0.252269 -0.467176 0.982245
v -0.252269 -0.594745 0.797732
v -0.797732 -0.467176 0.067755
v -0.797732 -0.594745 0.252269
v -0.982245 -0.467176 0.252269
v -0.797732 -0.467176 0.982245
v -0.982245 -0.467176 0.797732
v -0.797732 -0.594745 0.797732
v -0.939505 -0.057543 0.795417
v -0.939505 -0.151806 0.939505
v -0.795417 -0.057543 0.939505
v -0.795417 -0.057543 0.110495
v -0.939505 -0.151806 0.110495
v -0.939505 -0.057543 0.254583
v -0.110495 -0.151806 0.939505
v -0.110495 -0.057543 0.795417
v -0.254583 -0.057543 0.939505
v -0.110495 -0.464861 0.110495
v -0.110495 -0.559123 0.254583
v -0.254583 -0.559123 0.110495
v -0.110495 -0.151806 0.110495
v -0.254583 -0.057543 0.110495
v -0.110495 -0.057543 0.254583
v -0.110495 -0.559123 0.795417
v -0.110495 -0.464861 0.939505
v -0.254583 -0.559123 0.939505
v -0.939505 -0.464861 0.110495
v -0.795417 -0.559123 0.110495
v -0.939505 -0.559123 0.254583
v -0.795417 -0.559123 0.939505
v -0.939505 -0.464861 0.939505
v -0.939505 -0.559123 0.795417
v -0.525000 -0.012199 0.250880
v -0.525000 -0.148102 0.058032
v -0.250880 -0.012199 0.525000
v -0.058032 -0.148102 0.525000
v -0.991968 -0.148102 0.525000
v -0.799120 -0.012199 0.525000
v -0.525000 -0.148102 0.991968
v -0.525000 -0.012199 0.799120
v -0.799120 -0.308333 0.991968
v -0.991968 -0.308333 0.799120
v -0.250880 -0.308333 0.058032
v -0.058032 -0.308333 0.250880
v -0.525000 -0.468565 0.058032
v -0.525000 -0.604468 0.250880
v -0.058032 -0.468565 0.525000
v -0.250880 -0.604468 0.525000
v -0.799120 -0.604468 0.525000
v -0.991968 -0.468565 0.525000
v -0.525000 -0.604468 0.799120
v -0.525000 -0.468565 0.991968
v -0.991968 -0.308333 0.250880
v -0.799120 -0.308333 0.058032
v -0.250880 -0.308333 0.991968
v -0.058032 -0.308333 0.799120
v -0.525000 -0.308333 0.046227
v -1.003773 -0.308333 0.525000
v -0.525000 -0.308333 1.003773
v -0.046227 -0.308333 0.525000
v -0.525000 -0.616273 0.525000
v -0.921029 -0.072461 0.921029
v -0.921029 -0.072461 0.128971
v -0.128971 -0.072461 0.921029
v -0.128971 -0.544206 0.128971
v -0.128971 -0.072461 0.128971
v -0.128971 -0.544206 0.921029
v -0.921029 -0.544206 0.128971
v -0.921029 -0.544206 0.921029
v -0.525000 -0.052856 0.105807
v -0.105807 -0.052856 0.525000
v -0.944193 -0.052856 0.525000
v -0.525000 -0.052856 0.944193
v -0.944193 -0.308333 0.944193
v -0.105807 -0.308333 0.105807
v -0.525000 -0.563811 0.105807
v -0.105807 -0.563811 0.525000
v -0.944193 -0.563811 0.525000
v -0.525000 -0.563811 0.944193
v -0.944193 -0.308333 0.105807
v -0.105807 -0.308333 0.944193
v -0.525000 -0.000394 0.525000
vt 0.927661 0.530887
vt 0.926941 0.499825
vt 0.945110 0.499302
vt 0.945686 0.530550
vt 0.926633 0.468986
vt 0.944652 0.468333
vt 0.962773 0.468225
vt 0.963397 0.499057
vt 0.963801 0.530126
vt 0.962982 0.436036
vt 0.944892 0.435880
vt 0.945433 0.404602
vt 0.963678 0.404919
vt 0.926808 0.435408
vt 0.927188 0.404285
vt 0.927884 0.373168
vt 0.945974 0.373324
vt 0.964058 0.373797
vt 0.927661 0.564266
vt 0.945686 0.564604
vt 0.945110 0.595851
vt 0.926941 0.595328
vt 0.963801 0.565027
vt 0.963397 0.596096
vt 0.962773 0.626929
vt 0.944652 0.626820
vt 0.926633 0.626167
vt 0.852048 0.894203
vt 0.851668 0.925326
vt 0.833423 0.925009
vt 0.833964 0.893731
vt 0.850971 0.956443
vt 0.832882 0.956287
vt 0.814797 0.955814
vt 0.815178 0.924692
vt 0.815874 0.893575
vt 0.016139 0.905774
vt 0.047191 0.905076
vt 0.047732 0.936354
vt 0.016519 0.936896
vt 0.078249 0.904695
vt 0.078946 0.935812
vt 0.079326 0.966934
vt 0.048273 0.967632
vt 0.017215 0.968013
vt 0.926791 0.451589
vt 0.917793 0.449324
vt 0.916342 0.434962
vt 0.973449 0.626382
vt 0.971607 0.640383
vt 0.962454 0.642508
vt 0.173714 0.904695
vt 0.173170 0.888523
vt 0.187510 0.890382
vt 0.189862 0.904679
vt 0.928404 0.547475
vt 0.919434 0.545786
vt 0.917409 0.531349
vt 0.917410 0.373250
vt 0.919356 0.358947
vt 0.928428 0.356996
vt 0.111603 0.905774
vt 0.095465 0.906318
vt 0.097321 0.891949
vt 0.111587 0.889592
vt 0.861446 0.956360
vt 0.859499 0.970664
vt 0.850428 0.972615
vt 0.174790 0.966934
vt 0.190929 0.966390
vt 0.189073 0.980759
vt 0.174807 0.983116
vt 0.964017 0.548428
vt 0.973100 0.550497
vt 0.974469 0.565006
vt 0.805400 0.893657
vt 0.807346 0.879354
vt 0.816417 0.877403
vt 0.000000 0.906318
vt 0.001856 0.891949
vt 0.016123 0.889592
vt 0.962454 0.452646
vt 0.971607 0.454771
vt 0.973449 0.468772
vt 0.916389 0.469973
vt 0.917941 0.455901
vt 0.926840 0.453396
vt 0.112680 0.968013
vt 0.113224 0.984185
vt 0.098884 0.982326
vt 0.096532 0.968029
vt 0.852064 0.878022
vt 0.861062 0.880287
vt 0.862513 0.894649
vt 0.814781 0.971996
vt 0.805783 0.969731
vt 0.804332 0.955368
vt 0.917409 0.563804
vt 0.919434 0.549367
vt 0.928404 0.547678
vt 0.077706 0.888523
vt 0.092045 0.890382
vt 0.094397 0.904679
vt 0.974469 0.530148
vt 0.973100 0.544656
vt 0.964017 0.546725
vt 0.017759 0.984185
vt 0.003419 0.982326
vt 0.001068 0.968029
vt 0.964074 0.357615
vt 0.973073 0.359880
vt 0.974523 0.374243
vt 0.926840 0.641758
vt 0.917941 0.639253
vt 0.916389 0.625180
vt 0.973456 0.435954
vt 0.971509 0.450257
vt 0.962438 0.452208
vt 0.095465 0.966390
vt 0.093609 0.980759
vt 0.079342 0.983116
vt 0.111984 0.936896
vt 0.095465 0.937183
vt 0.916342 0.500617
vt 0.143738 0.967632
vt 0.144024 0.984185
vt 0.862513 0.925514
vt 0.916342 0.404097
vt 0.142370 0.888523
vt 0.142656 0.905076
vt 0.974469 0.595760
vt 0.190929 0.935525
vt 0.174410 0.935812
vt 0.944615 0.642720
vt 0.944605 0.452434
vt 0.944615 0.452434
vt 0.834250 0.877177
vt 0.974469 0.499393
vt 0.000000 0.937183
vt 0.804332 0.924503
vt 0.046905 0.888523
vt 0.048560 0.984185
vt 0.974523 0.405107
vt 0.095465 0.935525
vt 0.916342 0.594536
vt 0.946260 0.356771
vt 0.946196 0.547577
vt 0.946196 0.547577
vt 0.832595 0.972840
vt 0.143197 0.936354
vn -0.1521 0.2290 -0.9615
vn 0.0000 0.2557 -0.9667
vn 0.0000 0.0000 -1.0000
vn -0.1718 0.0000 -0.9851
vn 0.1521 0.2290 -0.9615
vn 0.1718 0.0000 -0.9851
vn 0.1521 -0.2290 -0.9615
vn 0.0000 -0.2557 -0.9667
vn -0.1521 -0.2290 -0.9615
vn -0.9615 -0.2290 0.1521
vn -0.9851 0.0000 0.1718
vn -1.0000 0.0000 0.0000
vn -0.9667 -0.2557 0.0000
vn -0.9615 0.2290 0.1521
vn -0.9667 0.2557 0.0000
vn -0.9615 0.2290 -0.1521
vn -0.9851 0.0000 -0.1718
vn -0.9615 -0.2290 -0.1521
vn 0.1521 -0.2290 0.9615
vn 0.1718 0.0000 0.9851
vn 0.0000 0.0000 1.0000
vn 0.0000 -0.2557 0.9667
vn 0.1521 0.2290 0.9615
vn 0.0000 0.2557 0.9667
vn -0.1521 0.2290 0.9615
vn -0.1718 0.0000 0.9851
vn -0.1521 -0.2290 0.9615
vn 0.9615 0.2290 -0.1521
vn 0.9667 0.2557 0.0000
vn 1.0000 0.0000 0.0000
vn 0.9851 0.0000 -0.1718
vn 0.9615 0.2290 0.1521
vn 0.9851 0.0000 0.1718
vn 0.9615 -0.2290 0.1521
vn 0.9667 -0.2557 0.0000
vn 0.9615 -0.2290 -0.1521
vn 0.1313 -0.9826 -0.1313
vn 0.1492 -0.9888 0.0000
vn 0.0000 -1.0000 0.0000
vn 0.0000 -0.9888 -0.1492
vn 0.1313 -0.9826 0.1313
vn 0.0000 -0.9888 0.1492
vn -0.1313 -0.9826 0.1313
vn -0.1492 -0.9888 0.0000
vn -0.1313 -0.9826 -0.1313
vn -0.6899 0.2194 0.6899
vn -0.5317 0.6592 0.5317
vn -0.6384 0.7583 0.1317
vn -0.1317 0.7583 0.6384
vn -0.1313 0.9826 0.1313
vn -0.6899 0.2194 -0.6899
vn -0.5317 0.6592 -0.5317
vn -0.1317 0.7583 -0.6384
vn -0.6384 0.7583 -0.1317
vn -0.1313 0.9826 -0.1313
vn 0.6384 0.7583 0.1317
vn 0.5317 0.6592 0.5317
vn 0.6899 0.2194 0.6899
vn 0.1313 0.9826 0.1313
vn 0.1317 0.7583 0.6384
vn 0.6384 -0.7583 -0.1317
vn 0.5317 -0.6592 -0.5317
vn 0.6899 -0.2194 -0.6899
vn 0.1317 -0.7583 -0.6384
vn 0.1317 0.7583 -0.6384
vn 0.5317 0.6592 -0.5317
vn 0.6899 0.2194 -0.6899
vn 0.1313 0.9826 -0.1313
vn 0.6384 0.7583 -0.1317
vn 0.6899 -0.2194 0.6899
vn 0.5317 -0.6592 0.5317
vn 0.6384 -0.7583 0.1317
vn 0.1317 -0.7583 0.6384
vn -0.1317 -0.7583 -0.6384
vn -0.5317 -0.6592 -0.5317
vn -0.6899 -0.2194 -0.6899
vn -0.6384 -0.7583 -0.1317
vn -0.6899 -0.2194 0.6899
vn -0.5317 -0.6592 0.5317
vn -0.1317 -0.7583 0.6384
vn -0.6384 -0.7583 0.1317
vn 0.0000 0.9888 -0.1492
vn 0.0000 0.7708 -0.6371
vn 0.1492 0.9888 0.0000
vn 0.6371 0.7708 0.0000
vn -0.6371 0.7708 0.0000
vn -0.1492 0.9888 0.0000
vn 0.0000 0.7708 0.6371
vn 0.0000 0.9888 0.1492
vn -0.7071 0.0000 0.7071
vn 0.7071 0.0000 -0.7071
vn 0.0000 -0.7708 -0.6371
vn 0.6371 -0.7708 0.0000
vn -0.6371 -0.7708 0.0000
vn 0.0000 -0.7708 0.6371
vn -0.7071 0.0000 -0.7071
vn 0.7071 0.0000 0.7071
vn 0.0000 1.0000 0.0000
usemtl Material.001
s 1
f 4/1/1 50/2/2 73/3/3 70/4/4
f 50/2/2 13/5/5 59/6/6 73/3/3
f 73/3/3 59/6/6 12/7/7 61/8/8
f 70/4/4 73/3/3 61/8/8 19/9/9
f 23/10/10 58/11/11 74/12/12 66/13/13
f 58/11/11 1/14/14 53/15/15 74/12/12
f 74/12/12 53/15/15 5/16/16 69/17/17
f 66/13/13 74/12/12 69/17/17 21/18/18
f 17/19/19 71/20/20 75/21/21 68/22/22
f 71/20/20 9/23/23 55/24/24 75/21/21
f 75/21/21 55/24/24 2/25/25 57/26/26
f 68/22/22 75/21/21 57/26/26 22/27/27
f 15/28/28 52/29/29 76/30/30 60/31/31
f 52/29/29 7/32/32 72/33/33 76/30/30
f 76/30/30 72/33/33 16/34/34 63/35/35
f 60/31/31 76/30/30 63/35/35 10/36/36
f 11/37/37 64/38/38 77/39/39 62/40/40
f 64/38/38 18/41/41 67/42/42 77/39/39
f 77/39/39 67/42/42 24/43/43 65/44/44
f 62/40/40 77/39/39 65/44/44 20/45/45
f 1/14/14 26/46/46 78/47/47 25/48/48
f 2/25/25 27/49/49 78/50/47 26/51/46
f 3/52/50 25/53/48 78/54/47 27/55/49
f 4/1/1 29/56/51 79/57/52 28/58/53
f 5/16/16 30/59/54 79/60/52 29/61/51
f 6/62/55 28/63/53 79/64/52 30/65/54
f 7/32/32 32/66/56 80/67/57 31/68/58
f 8/69/59 33/70/60 80/71/57 32/72/56
f 9/23/23 31/73/58 80/74/57 33/75/60
f 10/36/36 35/76/61 81/77/62 34/78/63
f 11/37/37 36/79/64 81/80/62 35/81/61
f 12/7/7 34/82/63 81/83/62 36/84/64
f 13/5/5 38/85/65 82/86/66 37/87/67
f 14/88/68 39/89/69 82/90/66 38/91/65
f 15/28/28 37/92/67 82/93/66 39/94/69
f 16/34/34 41/95/70 83/96/71 40/97/72
f 17/19/19 42/98/73 83/99/71 41/100/70
f 18/41/41 40/101/72 83/102/71 42/103/73
f 19/9/9 44/104/74 84/105/75 43/106/76
f 20/45/45 45/107/77 84/108/75 44/109/74
f 21/18/18 43/110/76 84/111/75 45/112/77
f 22/27/27 47/113/78 85/114/79 46/115/80
f 23/10/10 48/116/81 85/117/79 47/118/78
f 24/43/43 46/119/80 85/120/79 48/121/81
f 6/62/55 49/122/82 86/123/83 28/63/53
f 49/122/82 14/88/68 38/91/65 86/123/83
f 86/124/83 38/85/65 13/5/5 50/2/2
f 28/58/53 86/124/83 50/2/2 4/1/1
f 14/88/68 51/125/84 87/126/85 39/89/69
f 51/125/84 8/69/59 32/72/56 87/126/85
f 87/127/85 32/66/56 7/32/32 52/29/29
f 39/94/69 87/127/85 52/29/29 15/28/28
f 5/16/16 53/15/15 88/128/86 30/59/54
f 53/15/15 1/14/14 25/48/48 88/128/86
f 88/129/86 25/53/48 3/52/50 54/130/87
f 30/65/54 88/129/86 54/130/87 6/62/55
f 2/25/25 55/24/24 89/131/88 27/49/49
f 55/24/24 9/23/23 33/75/60 89/131/88
f 89/132/88 33/70/60 8/69/59 56/133/89
f 27/55/49 89/132/88 56/133/89 3/52/50
f 22/27/27 57/26/26 90/134/90 47/113/78
f 57/26/26 2/25/25 26/51/46 90/134/90
f 90/135/90 26/46/46 1/14/14 58/11/11
f 47/118/78 90/135/90 58/11/11 23/10/10
f 12/7/7 59/6/6 91/136/91 34/82/63
f 59/6/6 13/5/5 37/87/67 91/136/91
f 91/137/91 37/92/67 15/28/28 60/31/31
f 34/78/63 91/137/91 60/31/31 10/36/36
f 19/9/9 61/8/8 92/138/92 44/104/74
f 61/8/8 12/7/7 36/84/64 92/138/92
f 92/139/92 36/79/64 11/37/37 62/40/40
f 44/109/74 92/139/92 62/40/40 20/45/45
f 10/36/36 63/35/35 93/140/93 35/76/61
f 63/35/35 16/34/34 40/97/72 93/140/93
f 93/141/93 40/101/72 18/41/41 64/38/38
f 35/81/61 93/141/93 64/38/38 11/37/37
f 20/45/45 65/44/44 94/142/94 45/107/77
f 65/44/44 24/43/43 48/121/81 94/142/94
f 94/143/94 48/116/81 23/10/10 66/13/13
f 45/112/77 94/143/94 66/13/13 21/18/18
f 24/43/43 67/42/42 95/144/95 46/119/80
f 67/42/42 18/41/41 42/103/73 95/144/95
f 95/145/95 42/98/73 17/19/19 68/22/22
f 46/115/80 95/145/95 68/22/22 22/27/27
f 21/18/18 69/17/17 96/146/96 43/110/76
f 69/17/17 5/16/16 29/61/51 96/146/96
f 96/147/96 29/56/51 4/1/1 70/4/4
f 43/106/76 96/147/96 70/4/4 19/9/9
f 9/23/23 71/20/20 97/148/97 31/73/58
f 71/20/20 17/19/19 41/100/70 97/148/97
f 97/149/97 41/95/70 16/34/34 72/33/33
f 31/68/58 97/149/97 72/33/33 7/32/32
f 14/88/68 49/122/82 98/150/98 51/125/84
f 49/122/82 6/62/55 54/130/87 98/150/98
f 98/150/98 54/130/87 3/52/50 56/133/89
f 51/125/84 98/150/98 56/133/89 8/69/59
