# Blender v2.82 (sub 7) OBJ File: 'tiles_009.blend'
# www.blender.org
mtllib hill_top_00.mtl
v 1.025000 0.743365 -1.025000
v 1.025000 0.743365 1.025000
v -1.025000 0.743365 -1.025000
v -1.025000 0.743365 1.025000
v -1.025000 -1.299069 1.025000
v 1.025000 -1.299069 -1.025000
v 1.025000 -1.299069 1.025000
v -1.025000 -1.299069 -1.025000
vt 0.143586 0.570233
vt 0.143586 0.429208
vt 0.284847 0.429208
vt 0.284847 0.570233
vt 0.427136 0.712975
vt 0.286397 0.712975
vt 0.286397 0.571949
vt 0.427136 0.571949
vt 0.141514 0.854679
vt 0.000775 0.854679
vt 0.000775 0.713654
vt 0.141514 0.713654
vt 0.571435 0.854661
vt 0.571435 0.713922
vt 0.712460 0.713922
vt 0.712460 0.854661
vt 0.854691 0.143586
vt 0.854691 0.284611
vt 0.713952 0.284611
vt 0.713952 0.143586
vt 0.286162 0.000775
vt 0.427187 0.000775
vt 0.427187 0.142036
vt 0.286162 0.142036
vn 0.5773 0.5773 0.5773
vn 0.5773 0.5773 -0.5773
vn -0.5773 0.5773 -0.5773
vn -0.5773 0.5773 0.5773
vn 0.5773 -0.5773 0.5773
vn 0.5773 -0.5773 -0.5773
vn -0.5773 -0.5773 -0.5773
vn -0.5773 -0.5773 0.5773
usemtl Tile
s 1
f 2/1/1 1/2/2 3/3/3 4/4/4
f 2/5/1 7/6/5 6/7/6 1/8/2
f 1/9/2 6/10/6 8/11/7 3/12/3
f 5/13/8 4/14/4 3/15/3 8/16/7
f 5/17/8 7/18/5 2/19/1 4/20/4
f 5/21/8 8/22/7 6/23/6 7/24/5
