# Blender v2.82 (sub 7) OBJ File: 'tiles_009.blend'
# www.blender.org
mtllib hill_corner_inner_00.mtl
v 1.022589 0.742608 -1.022589
v 1.022589 0.742608 1.027411
v -1.027411 0.742608 -1.022589
v 1.022589 0.008024 -1.022589
v -1.027411 0.008024 1.027411
v 1.022589 0.008024 1.027411
v -1.027411 0.008024 -1.022589
v -1.027411 0.742608 -0.048839
v 1.022589 0.742608 -0.048839
v 1.022589 0.008024 -0.048839
v -1.027411 0.008024 -0.048839
v 0.048839 0.742608 1.027411
v 0.048839 0.742608 -1.022589
v 0.048839 0.008024 -1.022589
v 0.048839 0.008024 1.027411
v 0.048839 0.742608 -0.048839
v 0.048839 0.008024 -0.048839
v -1.025000 -1.299069 1.025000
v 0.051250 -1.299069 1.025000
v 1.025000 -1.299069 -1.025000
v 1.025000 -1.299069 1.025000
v -1.025000 -1.299069 -1.025000
v 1.025000 -1.299069 -0.051250
v -1.025000 -1.299069 -0.051250
v 0.051250 -1.299069 -1.025000
v 0.051250 -1.299069 -0.051250
vt 0.337015 0.429374
vt 0.337015 0.496361
vt 0.286397 0.496361
vt 0.286397 0.429374
vt 0.143752 0.622402
vt 0.143752 0.571784
vt 0.210739 0.571784
vt 0.210739 0.622402
vt 0.142036 0.359965
vt 0.074937 0.359965
vt 0.074937 0.285927
vt 0.142036 0.285927
vt 0.000775 0.359965
vt 0.074937 0.426952
vt 0.000775 0.426952
vt 0.407103 0.898406
vt 0.407103 0.972445
vt 0.356485 0.972445
vt 0.356485 0.898406
vt 0.337015 0.570399
vt 0.286397 0.570399
vt 0.142036 0.426952
vt 0.645587 0.479591
vt 0.645646 0.428973
vt 0.712633 0.429052
vt 0.712574 0.479670
vt 0.856649 0.930913
vt 0.856649 0.856875
vt 0.930811 0.856875
vt 0.930811 0.930913
vt 0.284777 0.622402
vt 0.284777 0.571784
vt 0.645587 0.376545
vt 0.712574 0.376466
vt 0.712633 0.427084
vt 0.645646 0.427163
vt 0.930687 0.983082
vt 0.856649 0.983082
vt 0.856649 0.932463
vt 0.930687 0.932463
vt 0.427084 0.570233
vt 0.427084 0.496195
vt 0.210573 0.712471
vt 0.143586 0.712471
vt 0.712633 0.569739
vt 0.645646 0.569660
vt 0.571608 0.286564
vt 0.645646 0.286476
vt 0.571548 0.376633
vt 0.571608 0.569572
vt 0.571548 0.479504
vt 0.284611 0.712471
vt 0.712633 0.286397
vt 0.427084 0.429208
vt 0.074937 0.571078
vt 0.142036 0.571078
vt 0.142036 0.638065
vt 0.074937 0.638065
vt 0.000775 0.638065
vt 0.000775 0.571078
vt 0.142036 0.712103
vt 0.074937 0.712103
vt 0.000775 0.712103
vn 0.7071 0.0013 -0.7071
vn 0.0000 0.0009 -1.0000
vn 0.0000 0.7071 -0.7071
vn 0.5773 0.5773 -0.5773
vn 0.7071 0.7071 0.0000
vn 1.0000 0.0009 0.0000
vn -0.3015 0.9045 0.3015
vn -0.5773 0.5773 0.5773
vn 0.5773 0.5773 0.5773
vn -0.5773 0.5773 -0.5773
vn -0.9048 0.3005 0.3016
vn -0.7075 0.0000 -0.7067
vn -0.5778 0.5764 0.5778
vn -0.3016 0.3005 0.9048
vn 0.7067 0.0000 0.7075
vn -0.5766 -0.5773 -0.5780
vn 0.0000 -0.7064 -0.7078
vn 0.7078 -0.7064 0.0000
vn 0.5778 -0.5764 -0.5778
vn -0.7064 -0.7078 0.0000
vn -0.5769 -0.5783 0.5769
vn 0.0000 -0.7078 0.7064
vn 0.5780 -0.5773 0.5766
vn 0.0000 -1.0000 0.0000
usemtl Tile
s 1
f 4/1/1 14/2/2 13/3/3 1/4/4
f 4/5/1 1/6/4 9/7/5 10/8/6
f 9/9/5 16/10/7 12/11/8 2/12/9
f 8/13/8 16/10/7 13/14/3 3/15/10
f 11/16/11 17/17/8 16/18/7 8/19/8
f 13/3/3 14/2/2 7/20/12 3/21/10
f 1/22/4 13/14/3 16/10/7 9/9/5
f 11/23/11 8/24/8 3/25/10 7/26/12
f 11/27/11 5/28/13 15/29/14 17/30/8
f 6/31/15 10/8/6 9/7/5 2/32/9
f 15/33/14 6/34/15 2/35/9 12/36/8
f 17/37/8 15/38/14 12/39/8 16/40/7
f 22/41/16 7/20/12 14/2/2 25/42/17
f 4/5/1 10/8/6 23/43/18 20/44/19
f 22/45/16 24/46/20 11/23/11 7/26/12
f 18/47/21 19/48/22 15/33/14 5/49/13
f 11/23/11 24/46/20 18/50/21 5/51/13
f 6/31/15 21/52/23 23/43/18 10/8/6
f 19/48/22 21/53/23 6/34/15 15/33/14
f 25/42/17 14/2/2 4/1/1 20/54/19
f 25/55/17 20/56/19 23/57/18 26/58/24
f 26/58/24 24/59/20 22/60/16 25/55/17
f 26/58/24 23/57/18 21/61/23 19/62/22
f 19/62/22 18/63/21 24/59/20 26/58/24
