# Blender v2.82 (sub 7) OBJ File: 'tiles_004.blend'
# www.blender.org
mtllib tile_base_01.mtl
o Base_Cube.011
v 1.025000 -2.007708 -1.025000
v 1.025000 -2.007708 1.025000
v -1.025000 -2.007708 -1.025000
v -1.025000 -2.007708 1.025000
v -1.025000 -1.375625 1.025000
v 1.025000 -1.375625 1.025000
v 1.025000 -1.375625 -0.051250
v 1.025000 -1.375625 0.000000
v 1.025000 -2.007708 0.051250
v 1.025000 -2.007708 -0.051250
v 1.025000 -2.007708 0.000000
v -1.025000 -2.007708 -0.051250
v -1.025000 -2.007708 0.051250
v -1.025000 -2.007708 0.000000
v -1.025000 -1.375625 -0.051250
v -1.025000 -1.375625 0.000000
v -0.051250 -2.007708 -1.025000
v 0.051250 -2.007708 -1.025000
v 0.000000 -2.007708 -1.025000
v -0.051250 -2.007708 1.025000
v 0.051250 -2.007708 1.025000
v 0.000000 -2.007708 1.025000
v -0.051250 -1.375625 1.025000
v 0.051250 -1.375625 1.025000
v -0.051250 -2.007708 0.051250
v -0.051250 -2.007708 -0.051250
v 0.051250 -2.007708 -0.051250
v 0.051250 -2.007708 0.051250
v -0.051250 -2.007708 0.000000
v 0.000000 -2.007708 0.000000
v 0.000000 -2.007708 -0.051250
v 0.051250 -2.007708 0.000000
v 0.000000 -2.007708 0.051250
v 1.025000 -1.375625 -1.025000
v -1.025000 -1.375625 -1.025000
v 1.025000 -1.375625 0.051250
v -1.025000 -1.375625 0.051250
v -0.051250 -1.375625 -1.025000
v 0.051250 -1.375625 -1.025000
v 0.000000 -1.375625 -1.025000
v 0.000000 -1.375625 1.025000
v -0.051250 -1.375625 0.051250
v -0.051250 -1.375625 -0.051250
v 0.051250 -1.375625 -0.051250
v 0.051250 -1.375625 0.051250
v -0.051250 -1.375625 0.000000
v 0.000000 -1.375625 0.000000
v 0.000000 -1.375625 -0.051250
v 0.051250 -1.375625 0.000000
v 0.000000 -1.375625 0.051250
vt 0.873726 0.701844
vt 0.945710 0.701844
vt 0.945710 0.812969
vt 0.873726 0.812969
vt 0.122568 0.233948
vt 0.233463 0.233948
vt 0.233463 0.345073
vt 0.122568 0.345073
vt 0.122568 0.356771
vt 0.233463 0.356771
vt 0.233463 0.467896
vt 0.122568 0.467896
vt 0.440976 0.935792
vt 0.368992 0.935792
vt 0.368992 0.824667
vt 0.440976 0.824667
vt 0.000000 0.233948
vt 0.110895 0.233948
vt 0.110895 0.345073
vt 0.000000 0.345073
vt 0.440976 0.812969
vt 0.368992 0.812969
vt 0.368992 0.701844
vt 0.440976 0.701844
vt 0.000000 0.356771
vt 0.110895 0.356771
vt 0.110895 0.467896
vt 0.000000 0.467896
vt 0.922179 0.111125
vt 0.850194 0.111125
vt 0.850194 0.000000
vt 0.922179 0.000000
vt 0.873726 0.824667
vt 0.945710 0.824667
vt 0.945710 0.935792
vt 0.873726 0.935792
vt 0.383268 0.590719
vt 0.455253 0.590719
vt 0.455253 0.701844
vt 0.383268 0.701844
vt 0.922179 0.233948
vt 0.850194 0.233948
vt 0.850194 0.122823
vt 0.922179 0.122823
vt 0.383268 0.467896
vt 0.455253 0.467896
vt 0.455253 0.579021
vt 0.383268 0.579021
vt 0.110895 0.350922
vt 0.116731 0.350922
vt 0.116731 0.356771
vt 0.116731 0.345073
vt 0.122568 0.350922
vt 0.922179 0.116974
vt 0.850194 0.116974
vt 0.440976 0.818818
vt 0.368992 0.818818
vt 0.000000 0.350922
vt 0.233463 0.350922
vt 0.116731 0.233948
vt 0.873726 0.818818
vt 0.945710 0.818818
vt 0.383268 0.584870
vt 0.455253 0.584870
vt 0.116732 0.467896
vt 0.122568 0.233948
vt 0.122568 0.122823
vt 0.233463 0.122823
vt 0.233463 0.233948
vt 0.122568 0.111125
vt 0.122568 0.000000
vt 0.233463 0.000000
vt 0.233463 0.111125
vt 0.000000 0.233948
vt 0.000000 0.122823
vt 0.110895 0.122823
vt 0.110895 0.233948
vt 0.000000 0.111125
vt 0.000000 0.000000
vt 0.110895 0.000000
vt 0.110895 0.111125
vt 0.116731 0.111125
vt 0.116731 0.116974
vt 0.110895 0.116974
vt 0.116731 0.122823
vt 0.122568 0.116974
vt 0.000000 0.116974
vt 0.233463 0.116974
vt 0.116732 0.233948
vt 0.116731 0.000000
vn -0.5773 -0.5773 -0.5773
vn -0.5773 0.5773 -0.5773
vn 0.0000 0.7071 -0.7071
vn 0.0000 -0.7071 -0.7071
vn 0.5773 -0.5773 -0.5773
vn 0.7071 -0.7071 0.0000
vn 0.0000 -1.0000 0.0000
vn 0.5773 -0.5773 0.5773
vn 0.0000 -0.7071 0.7071
vn 0.5773 0.5773 -0.5773
vn 0.7071 0.7071 0.0000
vn -0.7071 -0.7071 0.0000
vn 0.5773 0.5773 0.5773
vn -0.5773 -0.5773 0.5773
vn -0.7071 0.7071 0.0000
vn 0.0000 0.7071 0.7071
vn -0.5773 0.5773 0.5773
vn 0.0000 1.0000 0.0000
usemtl Material.001
s 1
f 3/1/1 35/2/2 38/3/3 17/4/4
f 18/5/4 1/6/5 10/7/6 27/8/7
f 28/9/7 9/10/6 2/11/8 21/12/9
f 1/13/5 34/14/10 7/15/11 10/16/6
f 3/17/1 17/18/4 26/19/7 12/20/12
f 9/21/6 36/22/11 6/23/13 2/24/8
f 13/25/12 25/26/7 20/27/9 4/28/14
f 12/29/12 15/30/15 35/31/2 3/32/1
f 18/33/4 39/34/3 34/35/10 1/36/5
f 20/37/9 23/38/16 5/39/17 4/40/14
f 4/41/14 5/42/17 37/43/15 13/44/12
f 2/45/8 6/46/13 24/47/16 21/48/9
f 25/26/7 29/49/7 30/50/7 33/51/7
f 26/19/7 31/52/7 30/50/7 29/49/7
f 27/8/7 32/53/7 30/50/7 31/52/7
f 28/9/7 33/51/7 30/50/7 32/53/7
f 15/30/15 12/29/12 14/54/12 16/55/15
f 16/55/15 14/54/12 13/44/12 37/43/15
f 36/22/11 9/21/6 11/56/6 8/57/11
f 8/57/11 11/56/6 10/16/6 7/15/11
f 25/26/7 13/25/12 14/58/12 29/49/7
f 29/49/7 14/58/12 12/20/12 26/19/7
f 9/10/6 28/9/7 32/53/7 11/59/6
f 11/59/6 32/53/7 27/8/7 10/7/6
f 18/5/4 27/8/7 31/52/7 19/60/4
f 19/60/4 31/52/7 26/19/7 17/18/4
f 39/34/3 18/33/4 19/61/4 40/62/3
f 40/62/3 19/61/4 17/4/4 38/3/3
f 23/38/16 20/37/9 22/63/9 41/64/16
f 41/64/16 22/63/9 21/48/9 24/47/16
f 28/9/7 21/12/9 22/65/9 33/51/7
f 33/51/7 22/65/9 20/27/9 25/26/7
f 39/66/3 44/67/18 7/68/11 34/69/10
f 45/70/18 24/71/16 6/72/13 36/73/11
f 35/74/2 15/75/15 43/76/18 38/77/3
f 37/78/15 5/79/17 23/80/16 42/81/18
f 42/81/18 50/82/18 47/83/18 46/84/18
f 43/76/18 46/84/18 47/83/18 48/85/18
f 44/67/18 48/85/18 47/83/18 49/86/18
f 45/70/18 49/86/18 47/83/18 50/82/18
f 42/81/18 46/84/18 16/87/15 37/78/15
f 46/84/18 43/76/18 15/75/15 16/87/15
f 36/73/11 8/88/11 49/86/18 45/70/18
f 8/88/11 7/68/11 44/67/18 49/86/18
f 39/66/3 40/89/3 48/85/18 44/67/18
f 40/89/3 38/77/3 43/76/18 48/85/18
f 45/70/18 50/82/18 41/90/16 24/71/16
f 50/82/18 42/81/18 23/80/16 41/90/16
