# Blender v2.82 (sub 7) OBJ File: 'tiles_004.blend'
# www.blender.org
mtllib tile_basin_corner_inner_01.mtl
o Basin_Corner_Inner_Cube.012
v 1.022589 0.017993 -1.022589
v 1.022589 0.017993 1.027411
v -1.027411 0.017993 -1.022589
v 1.022589 -0.716590 -1.022589
v -1.027411 -1.297423 1.027411
v -1.027411 -0.716590 1.027411
v 1.022589 -0.716590 1.027411
v -1.027411 -0.716590 -1.022589
v -1.027411 0.017993 -0.048839
v 1.022589 0.017993 -0.048839
v 1.022589 -0.716590 -0.048839
v -1.027411 -0.716590 -0.048839
v 0.048839 0.017993 1.027411
v 0.048839 0.017993 -1.022589
v 0.048839 -0.716590 -1.022589
v 0.048839 -1.297423 1.027411
v 0.048839 -0.716590 1.027411
v 1.022589 -1.297423 -1.022589
v 1.022589 -1.297423 1.027411
v -1.027411 -1.297423 -1.022589
v 1.022589 -1.297423 -0.048839
v -1.027411 -1.297423 -0.048839
v 0.048839 -1.297423 -1.022589
v 0.048839 -1.297423 -0.048839
v 0.048839 0.017993 -0.048839
v 0.048839 -0.716590 -0.048839
vt 0.850195 0.356771
vt 0.850195 0.467896
vt 0.766537 0.467896
vt 0.766537 0.356771
vt 0.832685 0.467896
vt 0.916342 0.467896
vt 0.916342 0.579021
vt 0.832685 0.579021
vt 0.550584 0.233948
vt 0.550584 0.345073
vt 0.466926 0.345073
vt 0.466926 0.233948
vt 0.616731 0.356771
vt 0.682879 0.356771
vt 0.682879 0.467896
vt 0.616731 0.467896
vt 0.916342 0.467896
vt 0.916342 0.356771
vt 0.766537 0.356771
vt 0.766537 0.467896
vt 0.766537 0.579021
vt 0.832685 0.701844
vt 0.766537 0.701844
vt 0.766537 0.467896
vt 0.466926 0.356771
vt 0.356031 0.356771
vt 0.356031 0.233948
vt 0.466926 0.233948
vt 0.916342 0.701844
vt 0.233463 0.356771
vt 0.356031 0.467896
vt 0.233463 0.467896
vt 1.000000 0.233948
vt 1.000000 0.356771
vt 0.916342 0.356771
vt 0.916342 0.233948
vt 0.616731 0.345073
vt 0.616731 0.233948
vt 0.466926 0.467896
vt 0.550584 0.467896
vt 0.466926 0.999404
vt 0.466926 0.876582
vt 0.589494 0.876582
vt 0.589494 0.999404
vt 0.720675 1.000000
vt 0.720674 0.877177
vt 0.804332 0.877177
vt 0.804332 1.000000
vt 0.466926 0.467896
vt 0.356031 0.111125
vt 0.233463 0.111125
vt 0.233463 0.000000
vt 0.356031 0.000000
vt 0.466926 0.000000
vt 0.466926 0.111125
vt 0.850194 0.233948
vt 0.916342 0.233948
vt 0.466926 0.233948
vt 0.356031 0.233948
vt 0.233463 0.233948
vt 0.616731 0.233948
vt 0.682879 0.233948
vn -0.3015 0.3015 0.9045
vn 0.7071 0.0000 0.7071
vn 0.5773 0.5773 0.5773
vn -0.5773 0.5773 0.5773
vn 0.7071 0.0000 -0.7071
vn 0.5773 0.5773 -0.5773
vn 0.7071 0.7071 0.0000
vn 1.0000 0.0000 0.0000
vn 0.0000 0.0000 -1.0000
vn 0.0000 0.7071 -0.7071
vn -0.7071 -0.7071 0.0000
vn -0.9045 0.3015 0.3015
vn -0.7071 0.0000 -0.7071
vn -0.5773 -0.5773 -0.5773
vn 0.5773 -0.5773 0.5773
vn 0.0000 -0.7071 0.7071
vn -0.5773 0.5773 -0.5773
vn 0.7071 -0.7071 0.0000
vn 0.5773 -0.5773 -0.5773
vn -0.3015 0.9045 0.3015
vn 0.0000 -0.7071 -0.7071
vn 0.0000 -1.0000 0.0000
vn -0.5773 -0.5773 0.5773
usemtl Material.001
s 1
f 17/1/1 7/2/2 2/3/3 13/4/4
f 4/5/5 1/6/6 10/7/7 11/8/8
f 4/9/5 15/10/9 14/11/10 1/12/6
f 22/13/11 12/14/12 8/15/13 20/16/14
f 19/17/15 7/2/2 17/1/1 16/18/16
f 12/14/12 9/19/4 3/20/17 8/15/13
f 21/21/18 11/8/8 7/22/2 19/23/15
f 18/24/19 4/5/5 11/8/8 21/21/18
f 10/25/7 25/26/20 13/27/4 2/28/3
f 11/8/8 10/7/7 2/29/3 7/22/2
f 9/30/4 25/26/20 14/31/10 3/32/17
f 26/33/4 17/34/1 13/35/4 25/36/20
f 23/37/21 15/10/9 4/9/5 18/38/19
f 1/39/6 14/31/10 25/26/20 10/25/7
f 23/37/21 20/16/14 8/40/13 15/10/9
f 17/41/1 26/42/4 12/43/12 6/44/4
f 12/45/12 26/46/4 25/47/20 9/48/4
f 15/10/9 8/40/13 3/49/17 14/11/10
f 24/50/22 22/51/11 20/52/14 23/53/21
f 23/53/21 18/54/19 21/55/18 24/50/22
f 16/18/16 17/1/1 6/56/4 5/57/23
f 24/50/22 21/55/18 19/58/15 16/59/16
f 24/50/22 16/59/16 5/60/23 22/51/11
f 22/13/11 5/61/23 6/62/4 12/14/12
