# Blender v2.82 (sub 7) OBJ File: 'tiles_009.blend'
# www.blender.org
mtllib rock_small_b_00.mtl
v -0.113558 -0.003880 0.251762
v -0.101224 0.076136 0.238940
v -0.116348 0.004012 -0.255982
v -0.102475 0.124793 -0.243159
v 0.109725 -0.003880 0.251762
v 0.090059 0.076136 0.238940
v 0.077814 0.004012 -0.255982
v 0.069190 0.124793 -0.243159
v -0.189280 -0.007976 0.135828
v -0.148315 0.084609 0.101634
v 0.159190 -0.007976 0.135828
v 0.100059 0.084609 0.101634
v -0.150226 0.091793 -0.008438
v -0.151650 0.102023 -0.115698
v 0.092273 -0.006815 -0.008438
v 0.074093 -0.005821 -0.149892
v -0.196721 -0.005821 -0.149892
v -0.199999 -0.006815 -0.008438
v 0.044409 0.102023 -0.115698
v 0.046668 0.091793 -0.008438
v -0.141158 0.035741 0.263247
v -0.138382 0.066837 -0.266060
v 0.113392 0.066837 -0.266060
v 0.137625 0.035740 0.263247
v 0.227808 0.037577 0.128989
v -0.261532 0.037576 0.128989
v 0.130876 0.048630 -0.143053
v 0.149862 0.042806 -0.008438
v -0.256754 0.042806 -0.008438
v -0.250426 0.048630 -0.143053
v -0.159910 -0.007478 0.207523
v -0.130147 0.060742 0.256772
v -0.136973 0.117411 -0.190985
v -0.136635 0.027622 -0.265536
v -0.015045 -0.000073 -0.263731
v -0.012751 0.131890 -0.252523
v 0.108833 0.027622 -0.265536
v 0.087294 -0.003184 -0.216143
v 0.110353 0.081079 0.182364
v 0.135816 0.010963 0.262483
v -0.001496 -0.006763 0.260436
v -0.004701 0.078887 0.249229
v -0.198323 -0.007395 0.062640
v -0.134563 0.081079 0.182364
v 0.149915 -0.007478 0.207523
v 0.073003 0.088465 0.039132
v -0.025491 0.091738 0.096505
v -0.015045 -0.014735 0.135828
v 0.233105 0.011236 0.134973
v -0.263650 0.011236 0.134973
v -0.150310 0.088465 0.039132
v -0.152603 0.094287 -0.055657
v 0.130639 -0.007395 0.062640
v 0.072134 -0.006473 -0.079165
v -0.165299 -0.003184 -0.216143
v -0.203438 -0.006473 -0.079165
v 0.069440 0.117411 -0.190985
v 0.034744 0.094286 -0.055657
v 0.131968 0.017426 -0.149037
v 0.154273 0.014337 -0.008438
v -0.061314 -0.014041 -0.149892
v -0.053863 -0.014290 -0.008438
v -0.052466 0.109980 -0.110569
v -0.051466 0.099109 -0.008438
v -0.261894 0.014337 -0.008438
v -0.254211 0.017426 -0.149037
v -0.138712 0.010963 0.262483
v -0.128297 0.105172 -0.259826
v 0.102832 0.105172 -0.259826
v 0.123985 0.060742 0.256772
v 0.184090 0.064472 0.115312
v -0.225080 0.064472 0.115312
v 0.103687 0.079437 -0.129376
v 0.113743 0.071037 -0.008438
v -0.218968 0.071037 -0.008438
v -0.217083 0.079437 -0.129376
v -0.256282 0.044488 -0.074463
v -0.263917 0.040244 0.057938
v 0.127668 0.044488 -0.074463
v 0.144791 0.057733 -0.212756
v -0.227066 0.036181 0.204318
v 0.194309 0.040244 0.057938
v -0.000442 0.035635 0.284320
v 0.214461 0.036181 0.204318
v -0.003124 0.070250 -0.285024
v -0.219084 0.057733 -0.212756
v -0.196058 0.092784 -0.202398
v -0.004201 0.110494 -0.280294
v 0.183520 0.062153 0.193914
v -0.001162 0.060738 0.279266
v -0.004956 -0.013817 0.208378
v -0.013021 0.087690 0.179824
v -0.039376 0.095727 0.035606
v -0.033842 -0.014512 0.062640
v 0.151290 0.067913 0.048535
v -0.201804 0.062153 0.193914
v 0.125502 0.092784 -0.202398
v 0.096012 0.073239 -0.065060
v -0.038587 -0.012078 -0.216907
v -0.065652 -0.014175 -0.079165
v -0.032642 0.126449 -0.188353
v -0.057921 0.101698 -0.052131
v -0.224748 0.067913 0.048535
v -0.219249 0.073239 -0.065060
v -0.261714 0.015302 -0.078577
v -0.268202 0.012793 0.062052
v 0.130746 0.015302 -0.078577
v 0.142354 0.022293 -0.216675
v -0.225628 0.010668 0.208191
v 0.200278 0.012793 0.062052
v -0.000483 0.010665 0.281640
v 0.215410 0.010668 0.208191
v -0.004687 0.028902 -0.282669
v -0.218855 0.022293 -0.216675
vt 0.581897 0.710476
vt 0.586327 0.708357
vt 0.590972 0.717754
vt 0.587874 0.719141
vt 0.595160 0.705398
vt 0.598988 0.715268
vt 0.604991 0.721513
vt 0.601718 0.724021
vt 0.962305 0.028698
vt 0.967223 0.031421
vt 0.966772 0.043316
vt 0.961416 0.041774
vt 0.965944 0.059259
vt 0.960280 0.058885
vt 0.969728 0.045647
vt 0.969728 0.056887
vt 0.619376 0.724021
vt 0.617647 0.720840
vt 0.628735 0.717655
vt 0.633686 0.718825
vt 0.964941 0.070338
vt 0.959422 0.071209
vt 0.641742 0.663513
vt 0.636126 0.666695
vt 0.634230 0.656257
vt 0.638158 0.653809
vt 0.624904 0.670686
vt 0.624457 0.659704
vt 0.620328 0.652591
vt 0.624544 0.649244
vt 0.626174 0.647720
vt 0.645944 0.657344
vt 0.649474 0.659311
vt 0.648892 0.675767
vt 0.645329 0.675557
vt 0.606996 0.653397
vt 0.606717 0.649075
vt 0.593870 0.656890
vt 0.589394 0.654956
vt 0.648788 0.693438
vt 0.645192 0.694781
vt 0.633344 0.593389
vt 0.608920 0.593375
vt 0.607500 0.583570
vt 0.629222 0.583699
vt 0.584467 0.593389
vt 0.585764 0.583699
vt 0.591393 0.577726
vt 0.606999 0.576548
vt 0.622711 0.577726
vt 0.607687 0.674290
vt 0.607479 0.662909
vt 0.590550 0.676269
vt 0.590581 0.665209
vt 0.620081 0.686578
vt 0.606539 0.688889
vt 0.607184 0.682731
vt 0.622615 0.679633
vt 0.592847 0.691003
vt 0.591728 0.684653
vt 0.634850 0.612894
vt 0.614368 0.612878
vt 0.611558 0.603269
vt 0.634614 0.603284
vt 0.593855 0.612894
vt 0.588472 0.603284
vt 0.608079 0.759267
vt 0.612897 0.758384
vt 0.612582 0.766467
vt 0.607839 0.768674
vt 0.629269 0.684772
vt 0.633139 0.676332
vt 0.638754 0.673721
vt 0.649474 0.704040
vt 0.645661 0.707235
vt 0.580934 0.664918
vt 0.579531 0.675892
vt 0.577088 0.663733
vt 0.574059 0.674512
vt 0.607267 0.724021
vt 0.612897 0.724081
vt 0.611729 0.732219
vt 0.606230 0.731648
vt 0.627538 0.710628
vt 0.635448 0.710527
vt 0.622279 0.700991
vt 0.630695 0.701147
vt 0.611934 0.741965
vt 0.606735 0.740965
vt 0.612561 0.750582
vt 0.607606 0.750168
vt 0.619528 0.693140
vt 0.628128 0.692706
vt 0.623102 0.646379
vt 0.608902 0.647418
vt 0.612227 0.641063
vt 0.629982 0.640978
vt 0.595868 0.646379
vt 0.594552 0.640978
vt 0.596407 0.632017
vt 0.615417 0.632000
vt 0.634393 0.632017
vt 0.616024 0.622439
vt 0.635334 0.622455
vt 0.596681 0.622455
vt 0.613397 0.712704
vt 0.608795 0.702603
vt 0.606662 0.694862
vt 0.593615 0.697351
vt 0.581127 0.684784
vt 0.575374 0.684021
vt 0.583250 0.692250
vt 0.577902 0.692694
vt 0.584522 0.699793
vt 0.579492 0.701458
vt 0.643488 0.612938
vt 0.643463 0.622421
vt 0.962432 0.009570
vt 0.966297 0.010742
vt 0.964669 0.015113
vt 0.960591 0.014160
vt 0.963263 0.020330
vt 0.958843 0.019651
vt 0.642408 0.631950
vt 0.643736 0.593545
vt 0.644374 0.603406
vt 0.966051 0.000000
vt 0.969480 0.001164
vt 0.967868 0.005547
vt 0.964251 0.004229
vt 0.588241 0.631950
vt 0.588415 0.622421
vt 0.602336 0.740712
vt 0.603466 0.750151
vt 0.604081 0.759802
vt 0.585115 0.612938
vt 0.591469 0.647720
vt 0.586777 0.641103
vt 0.602057 0.724711
vt 0.601389 0.731704
vt 0.626208 0.576308
vt 0.638402 0.583646
vt 0.641743 0.694430
vt 0.642055 0.706946
vt 0.646580 0.713037
vt 0.642826 0.713192
vt 0.578663 0.603406
vt 0.604019 0.769759
vt 0.607971 0.778586
vt 0.604357 0.779895
vt 0.574059 0.593545
vt 0.587702 0.576308
vt 0.606820 0.573718
vt 0.642483 0.657564
vt 0.641866 0.675569
vt 0.576540 0.583646
vt 0.609622 0.788530
vt 0.606197 0.789495
vt 0.643245 0.647720
vt 0.646852 0.647943
vt 0.952905 0.042437
vt 0.956037 0.041158
vt 0.954686 0.057721
vt 0.951324 0.054701
vt 0.954093 0.069856
vt 0.951367 0.065137
vt 0.637441 0.641103
vt 0.957330 0.028269
vt 0.625899 0.647720
vn -0.8813 0.4375 -0.1785
vn -0.5431 0.8396 0.0085
vn -0.5781 0.7616 -0.2929
vn -0.7544 0.3339 -0.5651
vn -0.2268 0.9660 0.1239
vn -0.2589 0.9657 0.0191
vn -0.1907 0.9377 -0.2903
vn -0.3681 0.6088 -0.7027
vn -0.3829 0.1589 -0.9100
vn 0.0197 0.4971 -0.8675
vn 0.0145 0.0606 -0.9980
vn 0.0008 0.9532 -0.3023
vn 0.2439 0.9485 -0.2019
vn 0.5191 0.6353 -0.5717
vn 0.6016 0.1489 -0.7848
vn 0.8640 0.4901 -0.1148
vn 0.4343 0.8976 -0.0751
vn 0.4404 0.8618 0.2514
vn 0.7737 0.4391 0.4567
vn 0.1603 0.9871 0.0019
vn 0.1609 0.9821 0.0974
vn 0.1211 0.9427 0.3109
vn 0.2874 0.7024 0.6511
vn 0.4046 0.2510 0.8793
vn 0.0025 0.5760 0.8174
vn 0.0029 0.0933 0.9956
vn -0.0012 0.9381 0.3464
vn -0.1185 0.9369 0.3289
vn -0.2827 0.6768 0.6797
vn -0.3807 0.2127 0.8999
vn -0.1600 -0.9861 0.0442
vn 0.0015 -1.0000 0.0029
vn 0.0009 -0.9974 0.0712
vn -0.1697 -0.9656 0.1967
vn 0.1688 -0.9853 -0.0265
vn 0.1787 -0.9698 0.1662
vn 0.1114 -0.9033 0.4141
vn -0.0000 -0.9019 0.4319
vn -0.1079 -0.9008 0.4205
vn 0.0015 0.9987 0.0517
vn 0.0006 0.9966 0.0819
vn -0.1575 0.9851 0.0692
vn -0.1621 0.9765 0.1422
vn 0.1764 0.9843 -0.0088
vn -0.0019 0.9983 0.0585
vn 0.0017 0.9982 0.0598
vn 0.1703 0.9850 -0.0279
vn -0.1784 0.9821 0.0604
vn -0.1653 0.9842 0.0634
vn -0.1845 -0.9828 -0.0054
vn -0.0013 -0.9999 -0.0083
vn 0.0008 -0.9999 -0.0103
vn -0.1671 -0.9859 -0.0022
vn 0.1771 -0.9811 -0.0780
vn 0.1686 -0.9810 -0.0964
vn 0.7880 0.4889 -0.3740
vn 0.4422 0.8824 -0.1605
vn 0.4288 0.8804 -0.2024
vn 0.7760 0.4766 -0.4132
vn -0.4353 0.8307 0.3470
vn -0.7173 0.3888 0.5782
vn -0.4352 0.8939 0.1067
vn -0.8549 0.4767 0.2045
vn 0.7261 0.6839 0.0717
vn 0.9702 0.2045 -0.1296
vn 0.2822 0.9405 0.1894
vn 0.2332 0.9509 0.2033
vn 0.5974 0.7716 0.2183
vn 0.9395 0.3001 0.1650
vn 0.5001 0.8658 0.0123
vn 0.8834 0.4596 -0.0911
vn 0.1947 0.9781 0.0739
vn -0.1538 -0.7773 -0.6100
vn 0.0029 -0.8012 -0.5984
vn -0.0023 -0.9901 -0.1407
vn -0.2514 -0.9027 -0.3491
vn 0.2040 -0.8189 -0.5365
vn 0.2698 -0.9530 -0.1376
vn 0.2139 -0.9768 -0.0040
vn -0.0056 -0.9997 -0.0249
vn -0.2408 -0.9648 -0.1060
vn -0.0039 -1.0000 -0.0060
vn -0.2116 -0.9772 -0.0168
vn 0.1905 -0.9812 -0.0313
vn 0.0005 0.9883 0.1524
vn -0.0031 0.9854 0.1698
vn -0.0053 0.9955 0.0940
vn -0.2004 0.9760 0.0849
vn -0.4342 0.9004 0.0278
vn -0.8582 0.5133 -0.0077
vn -0.4444 0.8955 0.0251
vn -0.8480 0.5293 -0.0246
vn -0.4812 0.8752 0.0491
vn -0.8660 0.4999 -0.0113
vn -0.8535 -0.5196 -0.0394
vn -0.8701 -0.4906 -0.0482
vn -0.8466 -0.4665 -0.2562
vn -0.8202 -0.5268 0.2231
vn -0.8497 -0.5271 -0.0128
vn 0.8173 -0.5722 0.0665
vn 0.8195 -0.5600 -0.1213
vn 0.7532 -0.5392 -0.3767
vn 0.4996 -0.4160 -0.7598
vn 0.8392 -0.5045 -0.2029
vn -0.3258 -0.4780 0.8157
vn -0.6408 -0.5223 0.5627
vn 0.7488 -0.5269 -0.4021
vn 0.8660 -0.4960 -0.0624
vn 0.3477 -0.4772 0.8071
vn 0.0018 -0.4239 0.9057
vn 0.7277 -0.4967 0.4731
vn -0.3307 -0.3192 -0.8881
vn 0.0161 -0.2828 -0.9590
vn -0.6739 -0.4207 -0.6073
usemtl Rock
s 1
f 30/1/1 76/2/2 87/3/3 86/4/4
f 76/2/2 14/5/5 33/6/6 87/3/3
f 87/3/3 33/6/6 4/7/7 68/8/8
f 86/9/4 87/10/3 68/11/8 22/12/9
f 22/12/9 68/11/8 88/13/10 85/14/11
f 68/11/8 4/15/7 36/16/12 88/13/10
f 88/17/10 36/18/12 8/19/13 69/20/14
f 85/14/11 88/13/10 69/21/14 23/22/15
f 25/23/16 71/24/17 89/25/18 84/26/19
f 71/24/17 12/27/20 39/28/21 89/25/18
f 89/25/18 39/28/21 6/29/22 70/30/23
f 84/26/19 89/25/18 70/30/23 24/31/24
f 24/32/24 70/33/23 90/34/25 83/35/26
f 70/30/23 6/29/22 42/36/27 90/37/25
f 90/37/25 42/36/27 2/38/28 32/39/29
f 83/35/26 90/34/25 32/40/29 21/41/30
f 9/42/31 48/43/32 91/44/33 31/45/34
f 48/43/32 11/46/35 45/47/36 91/44/33
f 91/44/33 45/47/36 5/48/37 41/49/38
f 31/45/34 91/44/33 41/49/38 1/50/39
f 12/27/20 47/51/40 92/52/41 39/28/21
f 47/51/40 10/53/42 44/54/43 92/52/41
f 92/52/41 44/54/43 2/38/28 42/36/27
f 39/28/21 92/52/41 42/36/27 6/29/22
f 20/55/44 64/56/45 93/57/46 46/58/47
f 64/56/45 13/59/48 51/60/49 93/57/46
f 93/57/46 51/60/49 10/53/42 47/51/40
f 46/58/47 93/57/46 47/51/40 12/27/20
f 18/61/50 62/62/51 94/63/52 43/64/53
f 62/62/51 15/65/54 53/66/55 94/63/52
f 94/63/52 53/66/55 11/46/35 48/43/32
f 43/64/53 94/63/52 48/43/32 9/42/31
f 28/67/56 74/68/57 95/69/58 82/70/59
f 74/71/57 20/55/44 46/58/47 95/72/58
f 95/72/58 46/58/47 12/27/20 71/24/17
f 82/73/59 95/72/58 71/24/17 25/23/16
f 21/41/30 32/40/29 96/74/60 81/75/61
f 32/39/29 2/38/28 44/54/43 96/76/60
f 96/76/60 44/54/43 10/53/42 72/77/62
f 81/78/61 96/76/60 72/77/62 26/79/63
f 23/80/15 69/81/14 97/82/64 80/83/65
f 69/20/14 8/19/13 57/84/66 97/85/64
f 97/85/64 57/84/66 19/86/67 73/87/68
f 80/83/65 97/82/64 73/88/68 27/89/69
f 27/89/69 73/88/68 98/90/70 79/91/71
f 73/87/68 19/86/67 58/92/72 98/93/70
f 98/93/70 58/92/72 20/55/44 74/71/57
f 79/91/71 98/90/70 74/68/57 28/67/56
f 3/94/73 35/95/74 99/96/75 55/97/76
f 35/95/74 7/98/77 38/99/78 99/96/75
f 99/96/75 38/99/78 16/100/79 61/101/80
f 55/97/76 99/96/75 61/101/80 17/102/81
f 17/102/81 61/101/80 100/103/82 56/104/83
f 61/101/80 16/100/79 54/105/84 100/103/82
f 100/103/82 54/105/84 15/65/54 62/62/51
f 56/104/83 100/103/82 62/62/51 18/61/50
f 8/19/13 36/18/12 101/106/85 57/84/66
f 36/18/12 4/7/7 33/6/6 101/106/85
f 101/106/85 33/6/6 14/5/5 63/107/86
f 57/84/66 101/106/85 63/107/86 19/86/67
f 19/86/67 63/107/86 102/108/87 58/92/72
f 63/107/86 14/5/5 52/109/88 102/108/87
f 102/108/87 52/109/88 13/59/48 64/56/45
f 58/92/72 102/108/87 64/56/45 20/55/44
f 26/79/63 72/77/62 103/110/89 78/111/90
f 72/77/62 10/53/42 51/60/49 103/110/89
f 103/110/89 51/60/49 13/59/48 75/112/91
f 78/111/90 103/110/89 75/112/91 29/113/92
f 29/113/92 75/112/91 104/114/93 77/115/94
f 75/112/91 13/59/48 52/109/88 104/114/93
f 104/114/93 52/109/88 14/5/5 76/2/2
f 77/115/94 104/114/93 76/2/2 30/1/1
f 18/61/50 65/116/95 105/117/96 56/104/83
f 65/118/95 29/119/92 77/120/94 105/121/96
f 105/121/96 77/120/94 30/122/1 66/123/97
f 56/104/83 105/117/96 66/124/97 17/102/81
f 9/42/31 50/125/98 106/126/99 43/64/53
f 50/127/98 26/128/63 78/129/90 106/130/99
f 106/130/99 78/129/90 29/119/92 65/118/95
f 43/64/53 106/126/99 65/116/95 18/61/50
f 16/100/79 59/131/100 107/132/101 54/105/84
f 59/133/100 27/89/69 79/91/71 107/134/101
f 107/134/101 79/91/71 28/67/56 60/135/102
f 54/105/84 107/132/101 60/136/102 15/65/54
f 7/98/77 37/137/103 108/138/104 38/99/78
f 37/139/103 23/80/15 80/83/65 108/140/104
f 108/140/104 80/83/65 27/89/69 59/133/100
f 38/99/78 108/138/104 59/131/100 16/100/79
f 1/50/39 67/141/105 109/142/106 31/45/34
f 67/143/105 21/41/30 81/75/61 109/144/106
f 109/144/106 81/75/61 26/145/63 50/146/98
f 31/45/34 109/142/106 50/125/98 9/42/31
f 15/65/54 60/136/102 110/147/107 53/66/55
f 60/135/102 28/67/56 82/70/59 110/148/107
f 110/148/107 82/70/59 25/149/16 49/150/108
f 53/66/55 110/147/107 49/151/108 11/46/35
f 5/48/37 40/152/109 111/153/110 41/49/38
f 40/154/109 24/32/24 83/35/26 111/155/110
f 111/155/110 83/35/26 21/41/30 67/143/105
f 41/49/38 111/153/110 67/141/105 1/50/39
f 11/46/35 49/151/108 112/156/111 45/47/36
f 49/150/108 25/149/16 84/157/19 112/158/111
f 112/159/111 84/160/19 24/32/24 40/154/109
f 45/47/36 112/156/111 40/152/109 5/48/37
f 3/161/73 34/162/112 113/163/113 35/164/74
f 34/162/112 22/12/9 85/14/11 113/163/113
f 113/163/113 85/14/11 23/22/15 37/165/103
f 35/164/74 113/163/113 37/165/103 7/166/77
f 17/102/81 66/124/97 114/167/114 55/97/76
f 66/123/97 30/122/1 86/9/4 114/168/114
f 114/168/114 86/9/4 22/12/9 34/162/112
f 55/97/76 114/167/114 34/169/112 3/94/73
