# Blender v2.82 (sub 7) OBJ File: 'tiles_009.blend'
# www.blender.org
mtllib base_00.mtl
v 1.025000 -2.007708 -1.025000
v 1.025000 -2.007708 1.025000
v -1.025000 -2.007708 -1.025000
v -1.025000 -2.007708 1.025000
v -1.025000 -1.375625 1.025000
v 1.025000 -1.375625 1.025000
v 1.025000 -1.375625 -1.025000
v -1.025000 -1.375625 -1.025000
vt 0.287573 0.852668
vt 0.287573 0.575520
vt 0.376241 0.575520
vt 0.376241 0.852668
vt 0.000000 0.554298
vt 0.000000 0.277149
vt 0.287573 0.277149
vt 0.287573 0.554298
vt 0.909968 0.545319
vt 0.909968 0.822468
vt 0.821300 0.822468
vt 0.821300 0.545319
vt 0.197725 0.554298
vt 0.286393 0.554298
vt 0.286393 0.831446
vt 0.197725 0.831446
vt 0.000000 0.000000
vt 0.287573 0.000000
vt 0.287573 0.277149
vt 0.000000 0.277149
vt 0.464910 0.575520
vt 0.464910 0.852668
vt 0.376241 0.575520
vn -0.5773 -0.5773 0.5773
vn 0.5773 -0.5773 0.5773
vn 0.5773 0.5773 0.5773
vn -0.5773 0.5773 0.5773
vn -0.5773 -0.5773 -0.5773
vn 0.5773 -0.5773 -0.5773
vn 0.5773 0.5773 -0.5773
vn -0.5773 0.5773 -0.5773
usemtl Rock
s 1
f 4/1/1 2/2/2 6/3/3 5/4/4
f 4/5/1 3/6/5 1/7/6 2/8/2
f 2/9/2 1/10/6 7/11/7 6/12/3
f 3/13/5 8/14/8 7/15/7 1/16/6
f 5/17/4 6/18/3 7/19/7 8/20/8
f 3/21/5 4/22/1 5/4/4 8/23/8
