# Blender v2.82 (sub 7) OBJ File: 'tiles_009.blend'
# www.blender.org
mtllib basin_corner_outer_00.mtl
v -1.022460 0.022231 1.022460
v 1.027540 -0.712352 -1.027540
v -1.022460 -1.293185 1.022460
v -1.022460 -0.712352 1.022460
v 1.027540 -0.712352 1.022460
v -1.022460 -0.712352 -1.027540
v 1.027540 -1.293185 0.048710
v -1.022460 0.022231 0.048710
v 1.027540 -0.712352 0.048710
v -0.048710 0.022231 1.022460
v -0.048710 -0.712352 1.022460
v -0.048710 -0.712352 0.048710
v -0.048710 0.022231 0.048710
v -0.048710 -1.293185 -1.027540
v -1.022460 -0.712352 0.048710
v -0.048710 -0.712352 -1.027540
v 1.027540 -1.293185 -1.027540
v 1.027540 -1.293185 1.022460
v -1.022460 -1.293185 -1.027540
v -1.022460 -1.293185 0.048710
v -0.048710 -1.293185 1.022460
v -0.048710 -1.293185 0.048710
vt 0.502776 0.142036
vt 0.502776 0.067874
vt 0.569763 0.067874
vt 0.569763 0.142036
vt 0.287836 0.965393
vt 0.287836 0.898406
vt 0.354934 0.898406
vt 0.354934 0.965393
vt 0.988344 0.855150
vt 0.948320 0.855149
vt 0.948320 0.788163
vt 0.988344 0.788163
vt 0.948320 0.714124
vt 0.988344 0.714124
vt 0.855098 0.714124
vt 0.855098 0.754148
vt 0.788111 0.754148
vt 0.788111 0.714124
vt 0.987936 0.210573
vt 0.947913 0.210573
vt 0.947913 0.143586
vt 0.987936 0.143586
vt 0.714073 0.714124
vt 0.714073 0.754148
vt 0.804653 0.067762
vt 0.764629 0.067762
vt 0.764629 0.000775
vt 0.804653 0.000775
vt 0.142036 0.284376
vt 0.074937 0.284376
vt 0.074937 0.210338
vt 0.142036 0.210338
vt 0.987936 0.284611
vt 0.947913 0.284611
vt 0.083924 0.931818
vt 0.134542 0.931818
vt 0.134542 0.998805
vt 0.083924 0.998805
vt 0.840280 0.965496
vt 0.789662 0.965496
vt 0.789662 0.898510
vt 0.840280 0.898509
vt 0.428738 0.067874
vt 0.428738 0.000775
vt 0.502776 0.000775
vt 0.804653 0.141801
vt 0.764629 0.141801
vt 0.855098 0.804766
vt 0.788111 0.804766
vt 0.428738 0.142036
vt 0.714010 0.067762
vt 0.714010 0.000775
vt 0.074937 0.143351
vt 0.000775 0.210338
vt 0.000775 0.143351
vt 0.000775 0.284376
vt 0.142036 0.143351
vn 0.7071 0.7071 0.0000
vn 0.3015 0.9045 -0.3015
vn 0.3015 0.3015 0.9045
vn 0.5773 0.5773 0.5773
vn 0.5773 0.5773 -0.5773
vn -0.5773 0.5773 -0.5773
vn -0.5773 0.5773 0.5773
vn -0.5773 -0.5773 -0.5773
vn 0.0000 0.7071 -0.7071
vn 0.0000 -0.7071 -0.7071
vn 0.5773 -0.5773 -0.5773
vn -0.5773 -0.5773 0.5773
vn -0.7071 0.0000 0.7071
vn -0.9045 0.3015 -0.3015
vn -0.7071 -0.7071 0.0000
vn 0.7071 -0.7071 0.0000
vn 0.5773 -0.5773 0.5773
vn 0.0000 -0.7071 0.7071
vn 0.0000 -1.0000 0.0000
usemtl Tile
s 1
f 9/1/1 12/2/2 11/3/3 5/4/4
f 13/5/5 8/6/6 1/7/7 10/8/4
f 19/9/8 6/10/6 16/11/9 14/12/10
f 14/12/10 16/11/9 2/13/5 17/14/11
f 3/15/12 4/16/13 15/17/14 20/18/15
f 7/19/16 9/20/1 5/21/4 18/22/17
f 19/23/8 20/18/15 15/17/14 6/24/6
f 21/25/18 11/26/3 4/27/13 3/28/12
f 19/29/8 14/30/10 22/31/19 20/32/15
f 7/19/16 17/33/11 2/34/5 9/20/1
f 12/35/2 13/36/5 10/37/4 11/38/3
f 15/39/14 8/40/6 13/41/5 12/42/2
f 16/43/9 6/44/6 15/45/14 12/2/2
f 21/25/18 18/46/17 5/47/4 11/26/3
f 15/17/14 4/16/13 1/48/7 8/49/6
f 9/1/1 2/50/5 16/43/9 12/2/2
f 4/27/13 11/26/3 10/51/4 1/52/7
f 21/53/18 22/31/19 7/54/16 18/55/17
f 22/31/19 14/30/10 17/56/11 7/54/16
f 20/32/15 22/31/19 21/53/18 3/57/12
