# Blender v2.82 (sub 7) OBJ File: 'tiles_009.blend'
# www.blender.org
mtllib hill_corner_outer_00.mtl
v -1.025000 -1.299069 1.025000
v 1.025000 -1.299069 0.051250
v -0.051250 -1.299069 -1.025000
v 1.025000 -1.299069 -1.025000
v 1.025000 -1.299069 1.025000
v -1.025000 -1.299069 -1.025000
v -1.025000 -1.299069 0.051250
v -0.051250 -1.299069 1.025000
v -0.051250 -1.299069 0.051250
v -1.022460 0.743365 1.022460
v 1.027540 0.008782 -1.027540
v -1.022460 0.008782 1.022460
v 1.027540 0.008782 1.022460
v -1.022460 0.008782 -1.027540
v -1.022460 0.743365 0.048710
v 1.027540 0.008782 0.048710
v -0.048710 0.743365 1.022460
v -0.048710 0.008782 1.022460
v -0.048710 0.008782 0.048710
v -0.048710 0.743365 0.048710
v -1.022460 0.008782 0.048710
v -0.048710 0.008782 -1.027540
vt 0.427187 0.143586
vt 0.427187 0.210685
vt 0.353149 0.210685
vt 0.353149 0.143586
vt 0.286162 0.210685
vt 0.353149 0.284847
vt 0.286162 0.284847
vt 0.427187 0.284847
vt 0.286162 0.143586
vt 0.142036 0.067762
vt 0.067874 0.067762
vt 0.067874 0.000775
vt 0.142036 0.000775
vt 0.286285 0.965505
vt 0.219298 0.965505
vt 0.219298 0.898406
vt 0.286285 0.898406
vt 0.645414 0.284325
vt 0.645352 0.194204
vt 0.712338 0.194288
vt 0.712401 0.284409
vt 0.946362 0.217799
vt 0.946362 0.284786
vt 0.856241 0.284611
vt 0.856241 0.217624
vt 0.712523 0.571549
vt 0.712460 0.661670
vt 0.645473 0.661753
vt 0.645536 0.571632
vt 0.571435 0.661845
vt 0.571498 0.571724
vt 0.856649 0.788337
vt 0.856649 0.714299
vt 0.946770 0.714124
vt 0.946770 0.788163
vt 0.856241 0.143586
vt 0.946362 0.143761
vt 0.932238 0.983082
vt 0.932238 0.932463
vt 0.999225 0.932463
vt 0.999225 0.983082
vt 0.982979 0.923862
vt 0.932361 0.923862
vt 0.932361 0.856875
vt 0.982979 0.856875
vt 0.571376 0.284233
vt 0.571313 0.194112
vt 0.067874 0.141800
vt 0.000775 0.141800
vt 0.000775 0.067762
vt 0.946770 0.855150
vt 0.856649 0.855324
vt 0.712523 0.712288
vt 0.645536 0.712371
vt 0.142036 0.141800
vt 0.645414 0.143586
vt 0.712401 0.143670
vn -0.5781 -0.5773 -0.5766
vn 0.0000 -0.7078 -0.7064
vn 0.0000 -1.0000 0.0000
vn -0.7078 -0.7064 0.0000
vn 0.0000 -0.7064 0.7078
vn 0.7064 -0.7078 0.0000
vn 0.5766 -0.5773 0.5781
vn 0.5768 -0.5784 -0.5768
vn -0.5778 -0.5763 0.5778
vn 0.7078 0.7064 0.0000
vn 0.3015 0.9045 -0.3015
vn 0.3014 0.3026 0.9042
vn 0.5781 0.5773 0.5766
vn 0.5773 0.5773 -0.5773
vn -0.5773 0.5773 -0.5773
vn -0.5773 0.5773 0.5773
vn 0.5773 0.5773 0.5773
vn -0.7071 0.0014 0.7071
vn -0.5766 0.5773 -0.5781
vn 0.0000 0.7064 -0.7078
vn -0.9042 0.3026 -0.3014
vn 0.5778 0.5763 -0.5778
usemtl Tile
s 1
f 6/1/1 3/2/2 9/3/3 7/4/4
f 8/5/5 9/3/3 2/6/6 5/7/7
f 9/3/3 3/2/2 4/8/8 2/6/6
f 7/4/4 9/3/3 8/5/5 1/9/9
f 16/10/10 19/11/11 18/12/12 13/13/13
f 20/14/14 15/15/15 10/16/16 17/17/17
f 8/18/5 18/19/12 12/20/18 1/21/9
f 3/22/2 6/23/1 14/24/19 22/25/20
f 1/26/9 12/27/18 21/28/21 7/29/4
f 21/28/21 14/30/19 6/31/1 7/29/4
f 2/32/6 4/33/8 11/34/22 16/35/10
f 11/36/22 4/37/8 3/22/2 22/25/20
f 19/38/11 20/39/14 17/40/17 18/41/12
f 21/42/21 15/43/15 20/44/14 19/45/11
f 8/18/5 5/46/7 13/47/13 18/19/12
f 22/48/20 14/49/19 21/50/21 19/11/11
f 13/51/13 5/52/7 2/32/6 16/35/10
f 21/28/21 12/27/18 10/53/16 15/54/15
f 16/10/10 11/55/22 22/48/20 19/11/11
f 12/20/18 18/19/12 17/56/17 10/57/16
