# Blender v2.82 (sub 7) OBJ File: 'tiles_009.blend'
# www.blender.org
mtllib rock_small_c_00.mtl
v -0.284357 -0.015023 0.335281
v -0.284357 0.131756 0.335281
v -0.294982 -0.021799 -0.270907
v -0.294982 0.045517 -0.270907
v 0.230951 -0.042783 0.183797
v 0.230951 0.100123 0.183797
v 0.006848 -0.027286 -0.309465
v 0.006848 0.051004 -0.309465
v -0.295521 -0.039173 0.008129
v -0.295521 0.086861 0.008129
v 0.313540 -0.058755 -0.132333
v 0.313540 0.086645 -0.132333
v -0.316982 -0.036945 0.217526
v -0.349470 0.065456 0.379944
v -0.299719 0.059969 -0.173672
v -0.334324 0.011859 -0.284567
v -0.160765 -0.031393 -0.304113
v -0.160765 0.055111 -0.304113
v 0.012795 0.011859 -0.323659
v 0.164385 -0.044746 -0.254153
v 0.328233 0.101219 0.041241
v 0.279815 0.026205 0.191590
v -0.034828 -0.045031 0.285767
v -0.034828 0.136692 0.285767
v -0.299720 -0.033254 -0.173672
v -0.316982 0.128394 0.217526
v 0.328233 -0.062631 0.041241
v 0.164385 0.068986 -0.254153
v 0.009009 0.112200 -0.062102
v 0.009009 -0.074411 -0.062102
v 0.427739 0.012089 -0.158669
v -0.409720 0.025700 0.034465
v -0.386360 0.013589 -0.160775
v -0.195806 0.011859 -0.333340
v 0.448870 0.014220 0.010278
v -0.051878 0.050684 0.340808
v 0.004824 -0.081069 0.131969
v 0.004824 0.146543 0.131969
v -0.069313 0.083688 -0.215285
v -0.069313 -0.058210 -0.215285
v 0.247733 0.011888 -0.269796
v -0.439222 0.051254 0.253660
vt 0.421236 0.953053
vt 0.420099 0.968527
vt 0.394762 0.958215
vt 0.396571 0.946730
vt 0.329739 0.864012
vt 0.331666 0.880673
vt 0.306545 0.886285
vt 0.304136 0.873901
vt 0.293348 0.890189
vt 0.289331 0.885078
vt 0.380135 0.946816
vt 0.383625 0.942399
vt 0.378992 0.927009
vt 0.384441 0.923784
vt 0.293762 0.908900
vt 0.287573 0.904761
vt 0.298708 0.930717
vt 0.296040 0.931401
vt 0.388464 0.900306
vt 0.390271 0.901813
vt 0.426237 0.868842
vt 0.426932 0.852668
vt 0.450503 0.856270
vt 0.450199 0.873484
vt 0.332375 0.979131
vt 0.333824 0.964544
vt 0.357899 0.960398
vt 0.355743 0.975796
vt 0.630191 0.724021
vt 0.641742 0.741084
vt 0.634579 0.761383
vt 0.623881 0.755417
vt 0.468260 0.884963
vt 0.465521 0.891366
vt 0.617394 0.760379
vt 0.625509 0.804662
vt 0.617252 0.798631
vt 0.639106 0.799908
vt 0.641742 0.833033
vt 0.632477 0.843121
vt 0.624091 0.832002
vt 0.423819 0.911079
vt 0.449811 0.918955
vt 0.448586 0.963702
vt 0.468852 0.929699
vt 0.465650 0.963784
vt 0.333378 0.922997
vt 0.360037 0.915971
vt 0.359959 0.870968
vt 0.376908 0.870987
vt 0.378992 0.905135
vt 0.373587 0.942646
vt 0.309494 0.917961
vt 0.311968 0.949376
vt 0.400071 0.915397
vt 0.403945 0.883542
vt 0.404918 0.871847
vt 0.311322 0.959852
vt 0.468852 0.973497
vt 0.448378 0.980467
vt 0.378992 0.859936
vt 0.358667 0.852668
vn -0.3177 -0.9480 -0.0191
vn -0.9866 -0.0232 -0.1611
vn -0.9775 -0.0185 -0.2098
vn -0.3258 -0.9408 -0.0928
vn -0.3126 0.9360 -0.1618
vn -0.3247 0.9328 -0.1563
vn -0.3127 0.8529 -0.4180
vn -0.7439 -0.0059 -0.6682
vn -0.3143 -0.8586 -0.4050
vn -0.1975 0.0000 -0.9803
vn -0.0861 -0.8125 -0.5766
vn -0.0859 0.8065 -0.5849
vn 0.0718 0.7341 -0.6753
vn 0.1391 -0.0006 -0.9903
vn 0.0715 -0.7394 -0.6694
vn 0.2994 -0.9219 -0.2456
vn 0.8706 -0.0172 -0.4916
vn 0.9797 -0.0187 0.1995
vn 0.3932 -0.8930 0.2189
vn 0.3162 0.9018 -0.2944
vn 0.4378 0.8867 0.1486
vn 0.3938 0.7635 0.5119
vn 0.6339 0.0006 0.7734
vn 0.3341 -0.7478 0.5737
vn 0.2516 0.0144 0.9677
vn 0.1343 -0.7767 0.6153
vn 0.1902 0.8266 0.5297
vn -0.1353 0.8585 0.4946
vn -0.5153 0.0772 0.8535
vn -0.1677 -0.7822 0.6000
vn -0.0314 -0.9978 -0.0584
vn -0.0056 -0.9948 0.1014
vn -0.3531 -0.9248 0.1412
vn -0.0171 0.9864 -0.1635
vn 0.0344 0.9985 -0.0410
vn -0.3394 0.9399 -0.0363
vn -0.0442 0.9751 -0.2172
vn 0.1712 0.8095 -0.5615
vn -0.0463 -0.9849 -0.1670
vn 0.1690 -0.8262 -0.5374
vn 0.4601 -0.0080 -0.8878
vn -0.9821 0.0226 0.1870
usemtl Rock
s 1
f 9/1/1 32/2/2 33/3/3 25/4/4
f 32/5/2 10/6/5 15/7/6 33/8/3
f 33/8/3 15/7/6 4/9/7 16/10/8
f 25/4/4 33/3/3 16/11/8 3/12/9
f 3/12/9 16/11/8 34/13/10 17/14/11
f 16/10/8 4/9/7 18/15/12 34/16/10
f 34/16/10 18/15/12 8/17/13 19/18/14
f 17/14/11 34/13/10 19/19/14 7/20/15
f 11/21/16 31/22/17 35/23/18 27/24/19
f 31/25/17 12/26/20 21/27/21 35/28/18
f 35/29/18 21/30/21 6/31/22 22/32/23
f 27/24/19 35/23/18 22/33/23 5/34/24
f 5/35/24 22/32/23 36/36/25 23/37/26
f 22/32/23 6/31/22 24/38/27 36/36/25
f 36/36/25 24/38/27 2/39/28 14/40/29
f 23/37/26 36/36/25 14/40/29 1/41/30
f 9/1/1 30/42/31 37/43/32 13/44/33
f 30/42/31 11/21/16 27/24/19 37/43/32
f 37/43/32 27/24/19 5/34/24 23/45/26
f 13/44/33 37/43/32 23/45/26 1/46/30
f 12/26/20 29/47/34 38/48/35 21/27/21
f 29/47/34 10/6/5 26/49/36 38/48/35
f 38/48/35 26/49/36 2/50/28 24/51/27
f 21/27/21 38/48/35 24/51/27 6/52/22
f 8/17/13 18/15/12 39/53/37 28/54/38
f 18/15/12 4/9/7 15/7/6 39/53/37
f 39/53/37 15/7/6 10/6/5 29/47/34
f 28/54/38 39/53/37 29/47/34 12/26/20
f 3/12/9 17/14/11 40/55/39 25/4/4
f 17/14/11 7/20/15 20/56/40 40/55/39
f 40/55/39 20/56/40 11/21/16 30/42/31
f 25/4/4 40/55/39 30/42/31 9/1/1
f 7/20/15 19/19/14 41/57/41 20/56/40
f 19/18/14 8/17/13 28/54/38 41/58/41
f 41/58/41 28/54/38 12/26/20 31/25/17
f 20/56/40 41/57/41 31/22/17 11/21/16
f 1/46/30 14/59/29 42/60/42 13/44/33
f 14/61/29 2/50/28 26/49/36 42/62/42
f 42/62/42 26/49/36 10/6/5 32/5/2
f 13/44/33 42/60/42 32/2/2 9/1/1
