# Blender v2.82 (sub 7) OBJ File: 'tiles_009.blend'
# www.blender.org
mtllib rock_small_d_00.mtl
v -0.181029 -0.084616 0.181029
v -0.191287 -0.034299 0.255374
v -0.255374 -0.034299 0.191287
v -0.191287 0.091840 0.255374
v -0.181029 0.142156 0.181029
v -0.255374 0.091840 0.191287
v -0.181029 -0.084616 -0.181029
v -0.255374 -0.034299 -0.191287
v -0.191287 -0.034299 -0.255374
v -0.181029 0.142156 -0.181029
v -0.191287 0.091840 -0.255374
v -0.255374 0.091840 -0.191287
v 0.181029 -0.084616 0.181029
v 0.255374 -0.034299 0.191287
v 0.191287 -0.034299 0.255374
v 0.181029 0.142156 0.181029
v 0.191287 0.091840 0.255374
v 0.255374 0.091840 0.191287
v 0.181029 -0.084616 -0.181029
v 0.191287 -0.034299 -0.255374
v 0.255374 -0.034299 -0.191287
v 0.181029 0.142156 -0.181029
v 0.255374 0.091840 -0.191287
v 0.191287 0.091840 -0.255374
v -0.210235 -0.100093 -0.049536
v -0.210234 -0.100093 0.049536
v -0.292332 -0.052671 0.048689
v -0.292332 -0.052671 -0.048689
v -0.202966 -0.013873 0.269166
v -0.202966 0.071414 0.269166
v -0.269166 0.071414 0.202966
v -0.269166 -0.013873 0.202966
v -0.210235 0.157633 0.049536
v -0.210234 0.157633 -0.049536
v -0.292332 0.110212 -0.048689
v -0.292332 0.110212 0.048689
v -0.202966 0.071414 -0.269166
v -0.202966 -0.013873 -0.269166
v -0.269166 -0.013873 -0.202966
v -0.269166 0.071414 -0.202966
v 0.049536 -0.100093 -0.210235
v -0.049536 -0.100093 -0.210235
v -0.048689 -0.052671 -0.292332
v 0.048689 -0.052671 -0.292332
v -0.049536 0.157633 -0.210235
v 0.049536 0.157633 -0.210234
v 0.048689 0.110212 -0.292332
v -0.048689 0.110212 -0.292332
v 0.269166 0.071414 -0.202966
v 0.269166 -0.013873 -0.202966
v 0.202966 -0.013873 -0.269166
v 0.202966 0.071414 -0.269166
v 0.210235 -0.100093 0.049536
v 0.210235 -0.100093 -0.049536
v 0.292332 -0.052671 -0.048689
v 0.292332 -0.052671 0.048689
v 0.210235 0.157633 -0.049536
v 0.210234 0.157633 0.049536
v 0.292332 0.110212 0.048689
v 0.292332 0.110212 -0.048689
v 0.202966 0.071414 0.269166
v 0.202966 -0.013873 0.269166
v 0.269166 -0.013873 0.202966
v 0.269166 0.071414 0.202966
v -0.049536 -0.100093 0.210235
v 0.049536 -0.100093 0.210235
v 0.048689 -0.052671 0.292332
v -0.048689 -0.052671 0.292332
v 0.049536 0.157633 0.210235
v -0.049536 0.157633 0.210235
v -0.048689 0.110212 0.292332
v 0.048689 0.110212 0.292332
v -0.323051 -0.010939 0.047996
v -0.323051 0.068479 0.047996
v -0.323051 0.068479 -0.047996
v -0.323051 -0.010939 -0.047996
v -0.047996 -0.010939 -0.323051
v -0.047996 0.068479 -0.323051
v 0.047996 0.068479 -0.323051
v 0.047996 -0.010939 -0.323051
v 0.323051 -0.010939 -0.047996
v 0.323051 0.068479 -0.047996
v 0.323051 0.068479 0.047996
v 0.323051 -0.010939 0.047996
v 0.047996 -0.010939 0.323051
v 0.047996 0.068479 0.323051
v -0.047996 0.068479 0.323051
v -0.047996 -0.010939 0.323051
v -0.049281 -0.126418 -0.049281
v 0.049281 -0.126418 -0.049281
v 0.049281 -0.126418 0.049281
v -0.049281 -0.126418 0.049281
v 0.049281 0.183959 -0.049281
v -0.049281 0.183959 -0.049281
v -0.049281 0.183959 0.049281
v 0.049281 0.183959 0.049281
vt 0.840708 0.194572
vt 0.846562 0.191569
vt 0.846150 0.211535
vt 0.843285 0.211737
vt 0.956089 0.765237
vt 0.956616 0.743202
vt 0.975186 0.747154
vt 0.978958 0.765119
vt 0.956767 0.091175
vt 0.953902 0.091377
vt 0.951324 0.074212
vt 0.957179 0.071209
vt 0.971596 0.091377
vt 0.968731 0.091175
vt 0.968319 0.071209
vt 0.974174 0.074212
vt 0.920498 0.764123
vt 0.924848 0.746297
vt 0.942841 0.742968
vt 0.942386 0.765004
vt 0.040217 0.947833
vt 0.017348 0.947882
vt 0.021120 0.930602
vt 0.039690 0.926726
vt 0.583983 0.753163
vt 0.581118 0.753365
vt 0.578540 0.736200
vt 0.584395 0.733197
vt 0.598812 0.753365
vt 0.595947 0.753163
vt 0.595535 0.733197
vt 0.601389 0.736200
vt 0.924848 0.794819
vt 0.920498 0.777401
vt 0.942386 0.778212
vt 0.942841 0.799317
vt 0.956186 0.224192
vt 0.959051 0.223990
vt 0.961628 0.241155
vt 0.955774 0.244158
vt 0.941356 0.223990
vt 0.944222 0.224192
vt 0.944633 0.244158
vt 0.938779 0.241155
vt 0.956616 0.799552
vt 0.956089 0.778446
vt 0.978958 0.778396
vt 0.975186 0.795676
vt 0.039690 0.983076
vt 0.021120 0.979124
vt 0.017348 0.961159
vt 0.040217 0.961041
vt 0.858114 0.224192
vt 0.860980 0.223990
vt 0.863557 0.241155
vt 0.857703 0.244158
vt 0.857703 0.191569
vt 0.863557 0.194572
vt 0.860980 0.211737
vt 0.858114 0.211535
vt 0.974174 0.120795
vt 0.968319 0.123798
vt 0.968731 0.103832
vt 0.971596 0.103630
vt 0.601389 0.782783
vt 0.595535 0.785786
vt 0.595947 0.765820
vt 0.598812 0.765618
vt 0.938779 0.194572
vt 0.944633 0.191569
vt 0.944222 0.211535
vt 0.941356 0.211737
vt 0.843285 0.223990
vt 0.846150 0.224192
vt 0.846562 0.244158
vt 0.840708 0.241155
vt 0.584395 0.785786
vt 0.578540 0.782783
vt 0.581118 0.765618
vt 0.583983 0.765820
vt 0.957179 0.123798
vt 0.951324 0.120795
vt 0.953902 0.103630
vt 0.956767 0.103832
vt 0.071458 0.979981
vt 0.053465 0.983310
vt 0.053920 0.961275
vt 0.075808 0.962155
vt 0.955774 0.191569
vt 0.961628 0.194572
vt 0.959051 0.211737
vt 0.956186 0.211535
vt 0.836227 0.217864
vt 0.986461 0.745067
vt 0.977551 0.736327
vt 0.080857 0.982420
vt 0.071946 0.990857
vt 0.915449 0.743858
vt 0.924360 0.735421
vt 0.009845 0.929940
vt 0.018755 0.921503
vt 0.986461 0.796338
vt 0.977551 0.804775
vt 0.018755 0.989951
vt 0.009845 0.981211
vt 0.574059 0.759492
vt 0.075808 0.948878
vt 0.086338 0.950023
vt 0.086338 0.963073
vt 0.943843 0.731130
vt 0.957382 0.731361
vt 0.052463 0.995148
vt 0.038924 0.994918
vt 0.909968 0.776256
vt 0.909968 0.763205
vt 0.005049 0.961689
vt 0.005049 0.948638
vt 0.957382 0.809715
vt 0.943843 0.809485
vt 0.053465 0.926961
vt 0.038924 0.916563
vt 0.052463 0.916794
vt 0.991257 0.764590
vt 0.991257 0.777640
vt 0.857703 0.253335
vt 0.846562 0.253335
vt 0.595535 0.794962
vt 0.584395 0.794962
vt 0.584395 0.724021
vt 0.595535 0.724021
vt 0.846562 0.182393
vt 0.857703 0.182393
vt 0.053920 0.948066
vt 0.071458 0.931459
vt 0.080857 0.931149
vt 0.988759 0.743174
vt 0.979555 0.734146
vt 0.915449 0.795129
vt 0.007547 0.983104
vt 0.016751 0.992133
vt 0.924360 0.803870
vt 0.071946 0.922409
vt 0.944718 0.726278
vt 0.958064 0.726506
vt 0.840708 0.250464
vt 0.578540 0.792092
vt 0.051588 1.000000
vt 0.038242 0.999773
vt 0.955774 0.182393
vt 0.961628 0.185263
vt 0.000000 0.962260
vt 0.000000 0.949395
vt 0.996306 0.764019
vt 0.996306 0.776883
vt 0.840708 0.185263
vn -0.1241 -0.7364 0.6651
vn -0.1534 -0.3039 0.9403
vn -0.5043 -0.3263 0.7995
vn -0.3629 -0.7157 0.5967
vn -0.0792 0.9937 0.0792
vn -0.3477 0.9324 0.0983
vn -0.3215 0.8906 0.3215
vn -0.0983 0.9324 0.3477
vn -0.5043 0.3263 -0.7995
vn -0.3629 0.7157 -0.5967
vn -0.1241 0.7364 -0.6651
vn -0.1534 0.3039 -0.9403
vn -0.3629 -0.7157 -0.5967
vn -0.5043 -0.3263 -0.7995
vn -0.1534 -0.3039 -0.9403
vn -0.1241 -0.7364 -0.6651
vn -0.0983 0.9324 -0.3477
vn -0.3215 0.8906 -0.3215
vn -0.3477 0.9324 -0.0983
vn -0.0792 0.9937 -0.0792
vn 0.0792 -0.9937 0.0792
vn 0.3477 -0.9324 0.0983
vn 0.3215 -0.8906 0.3215
vn 0.0983 -0.9324 0.3477
vn 0.7995 0.3263 -0.5043
vn 0.5967 0.7157 -0.3629
vn 0.6651 0.7364 -0.1241
vn 0.9403 0.3039 -0.1534
vn 0.5967 -0.7157 -0.3629
vn 0.7995 -0.3263 -0.5043
vn 0.9403 -0.3039 -0.1534
vn 0.6651 -0.7364 -0.1241
vn 0.3215 0.8906 -0.3215
vn 0.0983 0.9324 -0.3477
vn 0.0792 0.9937 -0.0792
vn 0.3477 0.9324 -0.0983
vn 0.5043 0.3263 0.7995
vn 0.3629 0.7157 0.5967
vn 0.1241 0.7364 0.6651
vn 0.1534 0.3039 0.9403
vn 0.3629 -0.7157 0.5967
vn 0.5043 -0.3263 0.7995
vn 0.1534 -0.3039 0.9403
vn 0.1241 -0.7364 0.6651
vn 0.3477 0.9324 0.0983
vn 0.0792 0.9937 0.0792
vn 0.0983 0.9324 0.3477
vn 0.3215 0.8906 0.3215
vn 0.0983 -0.9324 -0.3477
vn 0.3215 -0.8906 -0.3215
vn 0.3477 -0.9324 -0.0983
vn 0.0792 -0.9937 -0.0792
vn -0.7995 0.3263 0.5043
vn -0.5967 0.7157 0.3629
vn -0.6651 0.7364 0.1241
vn -0.9403 0.3039 0.1534
vn -0.1534 0.3039 0.9403
vn -0.1241 0.7364 0.6651
vn -0.3629 0.7157 0.5967
vn -0.5043 0.3263 0.7995
vn -0.6651 -0.7364 -0.1241
vn -0.9403 -0.3039 -0.1534
vn -0.7995 -0.3263 -0.5043
vn -0.5967 -0.7157 -0.3629
vn 0.1241 -0.7364 -0.6651
vn 0.1534 -0.3039 -0.9403
vn 0.5043 -0.3263 -0.7995
vn 0.3629 -0.7157 -0.5967
vn 0.6651 -0.7364 0.1241
vn 0.9403 -0.3039 0.1534
vn 0.7995 -0.3263 0.5043
vn 0.5967 -0.7157 0.3629
vn -0.5967 -0.7157 0.3629
vn -0.7995 -0.3263 0.5043
vn -0.9403 -0.3039 0.1534
vn -0.6651 -0.7364 0.1241
vn 0.1534 0.3039 -0.9403
vn 0.1241 0.7364 -0.6651
vn 0.3629 0.7157 -0.5967
vn 0.5043 0.3263 -0.7995
vn -0.9403 0.3039 -0.1534
vn -0.6651 0.7364 -0.1241
vn -0.5967 0.7157 -0.3629
vn -0.7995 0.3263 -0.5043
vn -0.3215 -0.8906 -0.3215
vn -0.0983 -0.9324 -0.3477
vn -0.0792 -0.9937 -0.0792
vn -0.3477 -0.9324 -0.0983
vn 0.9403 0.3039 0.1534
vn 0.6651 0.7364 0.1241
vn 0.5967 0.7157 0.3629
vn 0.7995 0.3263 0.5043
vn -0.3215 -0.8906 0.3215
vn -0.3477 -0.9324 0.0983
vn -0.0983 -0.9324 0.3477
vn -0.0792 -0.9937 0.0792
usemtl Rock
s 1
f 68/1/1 88/2/2 29/3/3 2/4/4
f 95/5/5 33/6/6 5/7/7 70/8/8
f 37/9/9 11/10/10 48/11/11 78/12/12
f 9/13/13 38/14/14 77/15/15 43/16/16
f 45/17/17 10/18/18 34/19/19 94/20/20
f 91/21/21 53/22/22 13/23/23 66/24/24
f 49/25/25 23/26/26 60/27/27 82/28/28
f 21/29/29 50/30/30 81/31/31 55/32/32
f 22/33/33 46/34/34 93/35/35 57/36/36
f 61/37/37 17/38/38 72/39/39 86/40/40
f 15/41/41 62/42/42 85/43/43 67/44/44
f 58/45/45 96/46/46 69/47/47 16/48/48
f 41/49/49 19/50/50 54/51/51 90/52/52
f 31/53/53 6/54/54 36/55/55 74/56/56
f 87/57/57 71/58/58 4/59/59 30/60/60
f 28/61/61 76/62/62 39/63/63 8/64/64
f 44/65/65 80/66/66 51/67/67 20/68/68
f 56/69/69 84/70/70 63/71/71 14/72/72
f 3/73/73 32/74/74 73/75/75 27/76/76
f 79/77/77 47/78/78 24/79/79 52/80/80
f 75/81/81 35/82/82 12/83/83 40/84/84
f 7/85/85 42/86/86 89/87/87 25/88/88
f 83/89/89 59/90/90 18/91/91 64/92/92
f 1/93/93 2/4/4 3/73/73
f 4/94/59 5/7/7 6/95/54
f 7/85/85 8/96/64 9/97/13
f 10/18/18 11/98/10 12/99/83
f 13/23/23 14/100/72 15/101/41
f 16/48/48 17/102/38 18/103/91
f 19/50/50 20/104/68 21/105/29
f 22/106/33 23/26/26 24/79/79
f 25/88/88 26/107/94 27/108/76 28/109/61
f 29/3/3 30/60/60 31/53/53 32/74/74
f 33/6/6 34/19/19 35/110/82 36/111/55
f 37/9/9 38/14/14 39/63/63 40/84/84
f 41/49/49 42/86/86 43/112/16 44/113/65
f 45/17/17 46/34/34 47/114/78 48/115/11
f 49/25/25 50/30/30 51/67/67 52/80/80
f 53/22/22 54/51/51 55/116/32 56/117/69
f 57/36/36 58/45/45 59/118/90 60/119/27
f 61/37/37 62/42/42 63/71/71 64/92/92
f 65/120/95 66/24/24 67/121/44 68/122/1
f 69/47/47 70/8/8 71/123/58 72/124/39
f 73/75/75 74/56/56 75/125/81 76/126/62
f 77/127/15 78/128/12 79/77/77 80/66/66
f 81/31/31 82/28/28 83/129/89 84/130/70
f 85/131/43 86/132/40 87/57/57 88/2/2
f 89/87/87 90/52/52 91/21/21 92/133/96
f 93/35/35 94/20/20 95/5/5 96/46/46
f 7/85/85 25/88/88 28/109/61 8/96/64
f 26/107/94 1/134/93 3/135/73 27/108/76
f 2/4/4 29/3/3 32/74/74 3/73/73
f 30/136/60 4/94/59 6/95/54 31/137/53
f 5/7/7 33/6/6 36/111/55 6/95/54
f 34/19/19 10/18/18 12/99/83 35/110/82
f 11/10/10 37/9/9 40/84/84 12/83/83
f 38/14/14 9/13/13 8/64/64 39/63/63
f 19/50/50 41/49/49 44/113/65 20/104/68
f 42/86/86 7/85/85 9/97/13 43/112/16
f 10/18/18 45/17/17 48/115/11 11/98/10
f 46/34/34 22/33/33 24/138/79 47/114/78
f 23/26/26 49/25/25 52/80/80 24/79/79
f 50/139/30 21/105/29 20/104/68 51/140/67
f 13/23/23 53/22/22 56/117/69 14/100/72
f 54/51/51 19/50/50 21/105/29 55/116/32
f 22/33/33 57/36/36 60/119/27 23/141/26
f 58/45/45 16/48/48 18/103/91 59/118/90
f 17/38/38 61/37/37 64/92/92 18/91/91
f 62/42/42 15/41/41 14/72/72 63/71/71
f 1/134/93 65/120/95 68/122/1 2/142/4
f 66/24/24 13/23/23 15/101/41 67/121/44
f 16/48/48 69/47/47 72/124/39 17/102/38
f 70/8/8 5/7/7 4/94/59 71/123/58
f 31/53/53 74/56/56 73/75/75 32/74/74
f 35/110/82 75/143/81 74/144/56 36/111/55
f 39/63/63 76/62/62 75/81/81 40/84/84
f 27/76/76 73/75/75 76/126/62 28/145/61
f 37/9/9 78/12/12 77/15/15 38/14/14
f 47/78/78 79/77/77 78/128/12 48/146/11
f 51/67/67 80/66/66 79/77/77 52/80/80
f 43/112/16 77/147/15 80/148/66 44/113/65
f 49/25/25 82/28/28 81/31/31 50/30/30
f 59/90/90 83/89/89 82/149/28 60/150/27
f 63/71/71 84/70/70 83/89/89 64/92/92
f 55/116/32 81/151/31 84/152/70 56/117/69
f 61/37/37 86/40/40 85/43/43 62/42/42
f 71/123/58 87/153/57 86/154/40 72/124/39
f 29/3/3 88/2/2 87/57/57 30/60/60
f 67/155/44 85/131/43 88/2/2 68/1/1
f 41/49/49 90/52/52 89/87/87 42/86/86
f 53/22/22 91/21/21 90/52/52 54/51/51
f 65/120/95 92/133/96 91/21/21 66/24/24
f 25/88/88 89/87/87 92/133/96 26/107/94
f 45/17/17 94/20/20 93/35/35 46/34/34
f 33/6/6 95/5/5 94/20/20 34/19/19
f 69/47/47 96/46/46 95/5/5 70/8/8
f 57/36/36 93/35/35 96/46/46 58/45/45
f 26/107/94 92/133/96 65/120/95 1/134/93
