# Blender v2.82 (sub 7) OBJ File: 'tiles_009.blend'
# www.blender.org
mtllib tree_cakepop_00.mtl
v -0.512500 1.549000 0.512500
v -0.512500 2.574000 0.512500
v -0.512500 1.549000 -0.512500
v -0.512500 2.574000 -0.512500
v 0.512500 1.549000 0.512500
v 0.512500 2.574000 0.512500
v 0.512500 1.549000 -0.512500
v 0.512500 2.574000 -0.512500
v -0.587256 1.474244 -0.304066
v -0.624807 1.436693 -0.000000
v -0.587256 1.474244 0.304066
v -0.587256 1.757434 0.587256
v -0.624807 2.061500 0.624807
v -0.587256 2.365566 0.587256
v -0.587256 2.648757 0.304066
v -0.624807 2.686307 -0.000000
v -0.587256 2.648756 -0.304066
v -0.587256 2.365566 -0.587256
v -0.624807 2.061500 -0.624807
v -0.587256 1.757434 -0.587256
v 0.304066 1.474244 -0.587256
v -0.000000 1.436693 -0.624807
v -0.304066 1.474244 -0.587256
v -0.304066 2.648757 -0.587256
v -0.000000 2.686307 -0.624807
v 0.304066 2.648756 -0.587256
v 0.587256 2.365566 -0.587256
v 0.624807 2.061500 -0.624807
v 0.587256 1.757434 -0.587256
v 0.587256 1.474244 0.304066
v 0.624807 1.436693 -0.000000
v 0.587256 1.474244 -0.304066
v 0.587256 2.648757 -0.304066
v 0.624807 2.686307 -0.000000
v 0.587256 2.648756 0.304066
v 0.587256 2.365566 0.587256
v 0.624807 2.061500 0.624807
v 0.587256 1.757434 0.587256
v -0.304066 1.474244 0.587256
v -0.000000 1.436693 0.624807
v 0.304066 1.474244 0.587256
v 0.304066 2.648757 0.587256
v -0.000000 2.686307 0.624807
v -0.304066 2.648756 0.587256
v -0.747215 1.737439 0.324061
v -0.801375 2.061500 0.341469
v -0.747215 2.385561 0.324061
v -0.801374 1.720031 -0.000000
v -0.860494 2.061500 -0.000000
v -0.801375 2.402969 -0.000000
v -0.747215 1.737439 -0.324061
v -0.801375 2.061500 -0.341469
v -0.747215 2.385561 -0.324061
v -0.324061 1.737439 -0.747215
v -0.341469 2.061500 -0.801375
v -0.324061 2.385561 -0.747215
v -0.000000 1.720031 -0.801374
v -0.000000 2.061500 -0.860494
v -0.000000 2.402969 -0.801374
v 0.324061 1.737439 -0.747215
v 0.341469 2.061500 -0.801375
v 0.324061 2.385561 -0.747215
v 0.747215 1.737439 -0.324061
v 0.801374 2.061500 -0.341469
v 0.747215 2.385561 -0.324061
v 0.801374 1.720031 0.000000
v 0.860494 2.061500 -0.000000
v 0.801374 2.402969 -0.000000
v 0.747215 1.737439 0.324061
v 0.801374 2.061500 0.341469
v 0.747215 2.385561 0.324061
v 0.324061 1.737439 0.747215
v 0.341469 2.061500 0.801374
v 0.324061 2.385561 0.747215
v -0.000000 1.720031 0.801374
v -0.000000 2.061500 0.860494
v -0.000000 2.402969 0.801374
v -0.324061 1.737439 0.747215
v -0.341469 2.061500 0.801374
v -0.324061 2.385561 0.747215
v -0.120575 1.240560 -0.120574
v -0.000000 1.240560 -0.170518
v 0.120574 1.240560 -0.120574
v -0.170518 1.240560 -0.000000
v -0.108750 1.132498 -0.108750
v 0.170518 1.240560 -0.000000
v -0.120575 1.240560 0.120574
v -0.000023 1.280473 0.393504
v 0.120574 1.240560 0.120574
v 0.324061 2.808715 -0.324061
v -0.000000 2.862875 -0.341469
v -0.324061 2.808715 -0.324061
v 0.341469 2.862875 -0.000000
v -0.000000 2.921994 -0.000000
v -0.341469 2.862875 -0.000000
v 0.324061 2.808715 0.324061
v -0.000000 2.862875 0.341469
v -0.324061 2.808715 0.324061
v -0.279292 1.280473 -0.279411
v 0.000112 1.280473 -0.393414
v 0.279387 1.280473 -0.279410
v -0.393414 1.280473 0.000112
v 0.393504 1.280473 -0.000023
v -0.279292 1.280473 0.279410
v 0.279387 1.280473 0.279410
v -0.000000 1.240560 0.170518
v -0.000000 0.001808 -0.208642
v -0.000000 0.001808 -0.000000
v -0.208642 0.001808 -0.000000
v 0.208642 0.001808 -0.000000
v -0.000000 0.001808 0.208642
v -0.147532 0.001808 -0.147532
v 0.147532 0.001808 -0.147532
v -0.147532 0.001808 0.147532
v 0.147532 0.001808 0.147532
v -0.099849 1.011611 -0.099849
v -0.088075 0.914108 -0.088075
v -0.099849 0.732152 -0.099849
v -0.115716 0.477835 -0.115716
v -0.153796 1.132498 -0.000000
v -0.141207 1.011611 -0.000000
v -0.124556 0.914108 -0.000000
v -0.141207 0.732152 -0.000000
v -0.163648 0.477835 -0.000000
v -0.000000 0.477835 0.163648
v -0.000000 0.732152 0.141207
v -0.000000 0.914108 0.124556
v -0.000000 1.011611 0.141207
v -0.000000 1.132498 0.153796
v -0.108750 1.132498 0.108750
v -0.099849 1.011611 0.099849
v -0.088075 0.914108 0.088075
v -0.099849 0.732152 0.099849
v -0.115716 0.477835 0.115716
v -0.000000 1.132498 -0.153796
v -0.000000 1.011611 -0.141207
v -0.000000 0.914108 -0.124556
v -0.000000 0.732152 -0.141207
v -0.000000 0.477835 -0.163648
v 0.115716 0.477835 0.115716
v 0.099849 0.732152 0.099849
v 0.088075 0.914108 0.088075
v 0.099849 1.011611 0.099849
v 0.108750 1.132498 0.108750
v 0.163648 0.477835 -0.000000
v 0.141207 0.732152 -0.000000
v 0.124556 0.914108 -0.000000
v 0.141207 1.011611 -0.000000
v 0.153796 1.132498 -0.000000
v 0.115716 0.477835 -0.115716
v 0.099849 0.732152 -0.099849
v 0.088075 0.914108 -0.088075
v 0.099849 1.011611 -0.099849
v 0.108750 1.132498 -0.108750
vt 0.643573 0.892230
vt 0.646641 0.844739
vt 0.696482 0.849211
vt 0.690600 0.898995
vt 0.651956 0.799470
vt 0.699434 0.801252
vt 0.743393 0.855508
vt 0.735393 0.902450
vt 0.743776 0.809690
vt 0.608622 0.919852
vt 0.602580 0.887688
vt 0.639037 0.932684
vt 0.602124 0.842998
vt 0.610446 0.800651
vt 0.621880 0.773153
vt 0.654228 0.764586
vt 0.698722 0.763427
vt 0.740383 0.774175
vt 0.389056 0.725587
vt 0.365234 0.755258
vt 0.346656 0.725987
vt 0.355696 0.696930
vt 0.776839 0.819171
vt 0.779157 0.862702
vt 0.768974 0.906208
vt 0.725191 0.942273
vt 0.753834 0.936015
vt 0.682559 0.942273
vt 0.886412 0.688831
vt 0.839444 0.685941
vt 0.844009 0.639132
vt 0.893232 0.644715
vt 0.795282 0.675936
vt 0.797207 0.631127
vt 0.850995 0.589901
vt 0.897374 0.597688
vt 0.806243 0.584792
vt 0.914524 0.714272
vt 0.882423 0.722169
vt 0.927030 0.687980
vt 0.838265 0.722169
vt 0.796915 0.710069
vt 0.313140 0.729519
vt 0.311214 0.687127
vt 0.267438 0.737124
vt 0.262077 0.691593
vt 0.225091 0.747306
vt 0.217375 0.706083
vt 0.772172 0.579091
vt 0.787738 0.549736
vt 0.816780 0.544901
vt 0.859400 0.546440
vt 0.902287 0.557001
vt 0.937316 0.602460
vt 0.931860 0.570130
vt 0.936685 0.646736
vt 0.049681 0.803038
vt 0.042959 0.756694
vt 0.093645 0.750732
vt 0.098034 0.799899
vt 0.038524 0.708439
vt 0.086278 0.700218
vt 0.141353 0.743422
vt 0.143059 0.790443
vt 0.131902 0.695844
vt 0.019863 0.831528
vt 0.007388 0.803411
vt 0.053063 0.839241
vt -0.002310 0.760187
vt -0.003081 0.714648
vt 0.002218 0.681921
vt 0.032844 0.667811
vt 0.076952 0.656849
vt 0.120460 0.655993
vt 0.149894 0.662002
vt 0.166135 0.691824
vt 0.177726 0.735903
vt 0.176604 0.780586
vt 0.354408 0.476397
vt 0.387944 0.507570
vt 0.361668 0.523237
vt 0.343454 0.495025
vt 0.098463 0.839241
vt 0.140679 0.827423
vt 0.320948 0.534907
vt 0.336448 0.581237
vt 0.287346 0.596425
vt 0.273631 0.546817
vt 0.348951 0.626334
vt 0.303138 0.643155
vt 0.240321 0.608735
vt 0.229721 0.561002
vt 0.257724 0.652429
vt 0.309572 0.494691
vt 0.379432 0.565532
vt 0.387944 0.609023
vt 0.387741 0.639616
vt 0.360319 0.660373
vt 0.318483 0.678826
vt 0.274721 0.684858
vt 0.243466 0.680885
vt 0.222625 0.656312
vt 0.203542 0.615845
vt 0.196349 0.570527
vt 0.223974 0.519177
vt 0.199179 0.536295
vt 0.264491 0.502551
vt 0.925289 0.356297
vt 0.940313 0.355421
vt 0.938095 0.421385
vt 0.918940 0.422502
vt 0.958394 0.613314
vt 0.943370 0.612438
vt 0.937022 0.546232
vt 0.956176 0.547350
vt 0.975567 0.612502
vt 0.978071 0.546314
vt 0.405610 0.725859
vt 0.390587 0.724983
vt 0.384238 0.658778
vt 0.403393 0.659895
vt 0.898325 0.254331
vt 0.911002 0.282615
vt 0.864000 0.289853
vt 0.866038 0.246443
vt 0.920475 0.325595
vt 0.884678 0.328285
vt 0.920475 0.370380
vt 0.872703 0.370481
vt 0.914292 0.402258
vt 0.884335 0.415947
vt 0.840738 0.426130
vt 0.834473 0.391585
vt 0.797252 0.426035
vt 0.792682 0.379751
vt 0.767515 0.419260
vt 0.752288 0.389862
vt 0.771991 0.341319
vt 0.741534 0.346323
vt 0.783978 0.299122
vt 0.742815 0.302097
vt 0.778955 0.256530
vt 0.751547 0.271333
vt 0.821271 0.245787
vt 0.822195 0.278020
vt 0.231628 0.793240
vt 0.277568 0.786319
vt 0.290619 0.832416
vt 0.241504 0.837329
vt 0.325466 0.774283
vt 0.340383 0.817354
vt 0.304319 0.868365
vt 0.257016 0.871103
vt 0.350854 0.852147
vt 0.198252 0.755967
vt 0.195182 0.789610
vt 0.382376 0.793912
vt 0.389056 0.828317
vt 0.386807 0.849128
vt 0.359147 0.870621
vt 0.316388 0.887249
vt 0.374669 0.675726
vt 0.331090 0.696837
vt 0.113957 0.629257
vt 0.154126 0.647261
vt 0.066774 0.627848
vt 0.201450 0.830461
vt 0.852077 0.331669
vt 0.843047 0.315096
vt 0.846804 0.349899
vt 0.825003 0.309889
vt 0.830316 0.359107
vt 0.808515 0.319096
vt 0.812272 0.353899
vt 0.803242 0.337326
vt 0.349816 0.883620
vt 0.364823 0.898759
vt 0.339205 0.909540
vt 0.328594 0.883665
vt 0.364823 0.920213
vt 0.349816 0.935415
vt 0.313587 0.920322
vt 0.313587 0.898868
vt 0.328594 0.935460
vt 0.422784 0.725047
vt 0.425288 0.658860
vt 0.403343 0.549388
vt 0.388403 0.550057
vt 0.384352 0.483034
vt 0.403399 0.482181
vt 0.420423 0.550057
vt 0.425175 0.483034
vt 0.957486 0.356232
vt 0.959990 0.422420
vt 0.942096 0.248337
vt 0.959990 0.249183
vt 0.958336 0.264549
vt 0.942196 0.263786
vt 0.956990 0.281661
vt 0.942171 0.280960
vt 0.955368 0.295545
vt 0.942297 0.294927
vt 0.956280 0.320852
vt 0.941462 0.320151
vt 0.419287 0.656666
vt 0.401491 0.655969
vt 0.402104 0.641088
vt 0.418156 0.641717
vt 0.402655 0.624357
vt 0.417392 0.624934
vt 0.403244 0.610952
vt 0.416243 0.611461
vt 0.403277 0.585271
vt 0.418015 0.585848
vt 0.385923 0.656666
vt 0.388064 0.641717
vt 0.389764 0.624934
vt 0.391872 0.611461
vt 0.390386 0.585848
vt 0.425288 0.832097
vt 0.407393 0.832943
vt 0.407494 0.817494
vt 0.423633 0.816731
vt 0.407469 0.800319
vt 0.422288 0.799619
vt 0.407595 0.786353
vt 0.420666 0.785735
vt 0.406759 0.761129
vt 0.421578 0.760428
vt 0.391739 0.832030
vt 0.393375 0.816671
vt 0.394506 0.799563
vt 0.396160 0.785686
vt 0.393796 0.760373
vt 0.978071 0.719551
vt 0.960177 0.720397
vt 0.960278 0.704949
vt 0.976417 0.704186
vt 0.960253 0.687774
vt 0.975071 0.687074
vt 0.960379 0.673807
vt 0.973449 0.673189
vt 0.959543 0.648583
vt 0.974361 0.647883
vt 0.944523 0.719484
vt 0.946158 0.704125
vt 0.947289 0.687018
vt 0.948943 0.673141
vt 0.946579 0.647828
vt 0.926441 0.249250
vt 0.928077 0.264609
vt 0.929208 0.281716
vt 0.930862 0.295594
vt 0.928498 0.320907
vn -0.8797 -0.3362 0.3362
vn -0.9344 0.0000 0.3560
vn -1.0000 0.0000 0.0000
vn -0.9344 -0.3560 0.0000
vn -0.8797 0.3362 0.3362
vn -0.9344 0.3560 0.0000
vn -0.9344 0.0000 -0.3560
vn -0.8797 -0.3362 -0.3362
vn -0.8797 0.3362 -0.3362
vn -0.5720 -0.5878 0.5720
vn -0.6709 -0.3157 0.6709
vn -0.6660 -0.6725 0.3226
vn -0.7071 0.0000 0.7071
vn -0.6709 0.3157 0.6709
vn -0.5773 0.5773 0.5773
vn -0.6709 0.6709 0.3157
vn -0.7071 0.7071 0.0000
vn -0.6709 0.6709 -0.3157
vn -0.5773 0.5773 -0.5773
vn -0.6709 0.3157 -0.6709
vn -0.7071 0.0000 -0.7071
vn -0.6709 -0.3157 -0.6709
vn -0.6660 -0.6726 -0.3226
vn -0.5720 -0.5878 -0.5720
vn -0.7110 -0.7032 0.0000
vn -0.3362 -0.3362 -0.8797
vn -0.3560 0.0000 -0.9344
vn 0.0000 0.0000 -1.0000
vn 0.0000 -0.3560 -0.9344
vn -0.3362 0.3362 -0.8797
vn 0.0000 0.3560 -0.9344
vn 0.3560 0.0000 -0.9344
vn 0.3362 -0.3362 -0.8797
vn 0.3362 0.3362 -0.8797
vn -0.3226 -0.6725 -0.6660
vn -0.3157 0.6709 -0.6709
vn 0.0000 0.7071 -0.7071
vn 0.3157 0.6709 -0.6709
vn 0.5773 0.5773 -0.5773
vn 0.6709 0.3157 -0.6709
vn 0.7071 0.0000 -0.7071
vn 0.6709 -0.3157 -0.6709
vn 0.3226 -0.6725 -0.6661
vn 0.5721 -0.5878 -0.5721
vn 0.0000 -0.7032 -0.7110
vn 0.8797 -0.3362 -0.3362
vn 0.9344 0.0000 -0.3560
vn 1.0000 0.0000 0.0000
vn 0.9344 -0.3560 0.0000
vn 0.8797 0.3362 -0.3362
vn 0.9344 0.3560 0.0000
vn 0.9344 0.0000 0.3560
vn 0.8797 -0.3362 0.3362
vn 0.8797 0.3362 0.3362
vn 0.6661 -0.6725 -0.3226
vn 0.6709 0.6709 -0.3157
vn 0.7071 0.7071 0.0000
vn 0.6709 0.6709 0.3157
vn 0.5773 0.5773 0.5773
vn 0.6709 0.3157 0.6709
vn 0.7071 0.0000 0.7071
vn 0.6709 -0.3157 0.6709
vn 0.6661 -0.6725 0.3226
vn 0.5721 -0.5878 0.5721
vn 0.7110 -0.7031 0.0000
vn 0.3362 -0.3362 0.8797
vn 0.3560 0.0000 0.9344
vn 0.0000 0.0000 1.0000
vn 0.0000 -0.3560 0.9344
vn 0.3362 0.3362 0.8797
vn 0.0000 0.3560 0.9344
vn -0.3560 0.0000 0.9344
vn -0.3362 -0.3362 0.8797
vn -0.3362 0.3362 0.8797
vn 0.3226 -0.6725 0.6661
vn 0.3157 0.6709 0.6709
vn 0.0000 0.7071 0.7071
vn -0.3157 0.6709 0.6709
vn -0.3226 -0.6725 0.6660
vn 0.0000 -0.7031 0.7110
vn -0.7042 0.0911 -0.7042
vn 0.0000 0.0911 -0.9958
vn 0.0000 -0.5946 -0.8040
vn -0.5685 -0.5946 -0.5685
vn -0.9958 0.0911 0.0000
vn -0.8040 -0.5946 0.0000
vn -0.7042 0.0911 0.7042
vn -0.5685 -0.5946 0.5685
vn 0.0000 0.0911 0.9958
vn 0.0000 -0.5946 0.8040
vn -0.2956 -0.9084 -0.2957
vn 0.0000 -0.9147 -0.4041
vn 0.2956 -0.9084 -0.2957
vn 0.4042 -0.9147 0.0000
vn 0.2957 -0.9084 0.2957
vn 0.0000 -0.9147 0.4042
vn -0.2956 -0.9084 0.2957
vn -0.4041 -0.9147 0.0001
vn 0.3362 0.8797 -0.3362
vn 0.0000 0.9344 -0.3560
vn 0.0000 1.0000 0.0000
vn 0.3560 0.9344 0.0000
vn -0.3362 0.8797 -0.3362
vn -0.3560 0.9344 0.0000
vn 0.0000 0.9344 0.3560
vn 0.3362 0.8797 0.3362
vn -0.3362 0.8797 0.3362
vn 0.0000 -0.7777 -0.6287
vn -0.4444 -0.7778 -0.4443
vn 0.4443 -0.7779 -0.4443
vn -0.6287 -0.7776 0.0000
vn 0.6286 -0.7777 0.0000
vn -0.4443 -0.7779 0.4443
vn 0.4443 -0.7779 0.4443
vn 0.0000 -0.7777 0.6286
vn 0.0000 -1.0000 0.0000
vn 0.5685 -0.5946 -0.5685
vn 0.8040 -0.5946 0.0000
vn 0.5685 -0.5946 0.5685
vn 0.7042 0.0911 0.7042
vn 0.9958 0.0911 0.0000
vn 0.7042 0.0911 -0.7042
vn 0.7012 -0.1291 -0.7012
vn 0.0000 -0.1291 -0.9916
vn 0.7006 -0.1350 -0.7006
vn 0.0000 -0.1350 -0.9908
vn 0.7065 -0.0402 -0.7065
vn 0.0000 -0.0402 -0.9992
vn 0.7042 0.0894 -0.7042
vn 0.0000 0.0894 -0.9960
vn 0.9916 -0.1291 0.0000
vn 0.9908 -0.1350 0.0000
vn 0.9992 -0.0402 0.0000
vn 0.9960 0.0894 0.0000
vn 0.7012 -0.1291 0.7012
vn 0.7006 -0.1350 0.7006
vn 0.7065 -0.0402 0.7065
vn 0.7042 0.0894 0.7042
vn 0.0000 -0.1291 0.9916
vn 0.0000 -0.1350 0.9908
vn 0.0000 -0.0402 0.9992
vn 0.0000 0.0894 0.9960
vn -0.7012 -0.1291 0.7012
vn -0.7006 -0.1350 0.7006
vn -0.7065 -0.0402 0.7065
vn -0.7042 0.0894 0.7042
vn -0.9916 -0.1291 0.0000
vn -0.9908 -0.1350 0.0000
vn -0.9992 -0.0402 0.0000
vn -0.9960 0.0894 0.0000
vn -0.7012 -0.1291 -0.7012
vn -0.7006 -0.1350 -0.7006
vn -0.7065 -0.0402 -0.7065
vn -0.7042 0.0894 -0.7042
usemtl Tree
s 1
f 45/1/1 46/2/2 49/3/3 48/4/4
f 46/2/2 47/5/5 50/6/6 49/3/3
f 48/4/4 49/3/3 52/7/7 51/8/8
f 49/3/3 50/6/6 53/9/9 52/7/7
f 1/10/10 12/11/11 45/1/1 11/12/12
f 12/11/11 13/13/13 46/2/2 45/1/1
f 13/13/13 14/14/14 47/5/5 46/2/2
f 14/14/14 2/15/15 15/16/16 47/5/5
f 47/5/5 15/16/16 16/17/17 50/6/6
f 50/6/6 16/17/17 17/18/18 53/9/9
f 53/19/9 17/20/18 4/21/19 18/22/20
f 52/7/7 53/9/9 18/23/20 19/24/21
f 51/8/8 52/7/7 19/24/21 20/25/22
f 9/26/23 51/8/8 20/25/22 3/27/24
f 10/28/25 48/4/4 51/8/8 9/26/23
f 11/12/12 45/1/1 48/4/4 10/28/25
f 54/29/26 55/30/27 58/31/28 57/32/29
f 55/30/27 56/33/30 59/34/31 58/31/28
f 57/32/29 58/31/28 61/35/32 60/36/33
f 58/31/28 59/34/31 62/37/34 61/35/32
f 3/38/24 20/39/22 54/29/26 23/40/35
f 20/39/22 19/41/21 55/30/27 54/29/26
f 19/41/21 18/42/20 56/33/30 55/30/27
f 18/22/20 4/21/19 24/43/36 56/44/30
f 56/44/30 24/43/36 25/45/37 59/46/31
f 59/46/31 25/45/37 26/47/38 62/48/34
f 62/37/34 26/49/38 8/50/39 27/51/40
f 61/35/32 62/37/34 27/51/40 28/52/41
f 60/36/33 61/35/32 28/52/41 29/53/42
f 21/54/43 60/36/33 29/53/42 7/55/44
f 22/56/45 57/32/29 60/36/33 21/54/43
f 23/40/35 54/29/26 57/32/29 22/56/45
f 63/57/46 64/58/47 67/59/48 66/60/49
f 64/58/47 65/61/50 68/62/51 67/59/48
f 66/60/49 67/59/48 70/63/52 69/64/53
f 67/59/48 68/62/51 71/65/54 70/63/52
f 7/66/44 29/67/42 63/57/46 32/68/55
f 29/67/42 28/69/41 64/58/47 63/57/46
f 28/69/41 27/70/40 65/61/50 64/58/47
f 27/70/40 8/71/39 33/72/56 65/61/50
f 65/61/50 33/72/56 34/73/57 68/62/51
f 68/62/51 34/73/57 35/74/58 71/65/54
f 71/65/54 35/74/58 6/75/59 36/76/60
f 70/63/52 71/65/54 36/76/60 37/77/61
f 69/64/53 70/63/52 37/77/61 38/78/62
f 30/79/63 69/80/53 38/81/62 5/82/64
f 31/83/65 66/60/49 69/64/53 30/84/63
f 32/68/55 63/57/46 66/60/49 31/83/65
f 72/85/66 73/86/67 76/87/68 75/88/69
f 73/86/67 74/89/70 77/90/71 76/87/68
f 75/88/69 76/87/68 79/91/72 78/92/73
f 76/87/68 77/90/71 80/93/74 79/91/72
f 5/82/64 38/81/62 72/85/66 41/94/75
f 38/81/62 37/95/61 73/86/67 72/85/66
f 37/95/61 36/96/60 74/89/70 73/86/67
f 36/96/60 6/97/59 42/98/76 74/89/70
f 74/89/70 42/98/76 43/99/77 77/90/71
f 77/90/71 43/99/77 44/100/78 80/93/74
f 80/93/74 44/100/78 2/101/15 14/102/14
f 79/91/72 80/93/74 14/102/14 13/103/13
f 78/92/73 79/91/72 13/103/13 12/104/11
f 39/105/79 78/92/73 12/104/11 1/106/10
f 40/107/80 75/88/69 78/92/73 39/105/79
f 41/94/75 72/85/66 75/88/69 40/107/80
f 119/108/81 139/109/82 107/110/83 112/111/84
f 124/112/85 119/113/81 112/114/84 109/115/86
f 134/116/87 124/112/85 109/115/86 114/117/88
f 125/118/89 134/119/87 114/120/88 111/121/90
f 3/122/24 23/123/35 99/124/91 9/125/23
f 23/123/35 22/126/45 100/127/92 99/124/91
f 22/126/45 21/128/43 101/129/93 100/127/92
f 21/128/43 7/130/44 32/131/55 101/129/93
f 101/129/93 32/131/55 31/132/65 103/133/94
f 103/133/94 31/132/65 30/134/63 105/135/95
f 105/135/95 30/134/63 5/136/64 41/137/75
f 88/138/96 105/135/95 41/137/75 40/139/80
f 104/140/97 88/138/96 40/139/80 39/141/79
f 11/142/12 104/140/97 39/141/79 1/143/10
f 10/144/25 102/145/98 104/140/97 11/142/12
f 9/125/23 99/124/91 102/145/98 10/144/25
f 90/146/99 91/147/100 94/148/101 93/149/102
f 91/147/100 92/150/103 95/151/104 94/148/101
f 93/149/102 94/148/101 97/152/105 96/153/106
f 94/148/101 95/151/104 98/154/107 97/152/105
f 8/155/39 26/47/38 90/146/99 33/156/56
f 26/47/38 25/45/37 91/147/100 90/146/99
f 25/45/37 24/43/36 92/150/103 91/147/100
f 24/43/36 4/21/19 17/20/18 92/150/103
f 92/150/103 17/20/18 16/157/17 95/151/104
f 95/151/104 16/157/17 15/158/16 98/154/107
f 98/154/107 15/158/16 2/159/15 44/160/78
f 97/152/105 98/154/107 44/160/78 43/161/77
f 96/162/106 97/163/105 43/99/77 42/98/76
f 35/74/58 96/164/106 42/165/76 6/75/59
f 34/73/57 93/166/102 96/164/106 35/74/58
f 33/156/56 90/146/99 93/149/102 34/167/57
f 82/168/108 81/169/109 99/124/91 100/127/92
f 83/170/110 82/168/108 100/127/92 101/129/93
f 81/169/109 84/171/111 102/145/98 99/124/91
f 86/172/112 83/170/110 101/129/93 103/133/94
f 84/171/111 87/173/113 104/140/97 102/145/98
f 89/174/114 86/172/112 103/133/94 105/135/95
f 87/173/113 106/175/115 88/138/96 104/140/97
f 106/175/115 89/174/114 105/135/95 88/138/96
f 112/176/84 107/177/83 108/178/116 109/179/86
f 107/177/83 113/180/117 110/181/118 108/178/116
f 109/179/86 108/178/116 111/182/90 114/183/88
f 108/178/116 110/181/118 115/184/119 111/182/90
f 140/185/120 125/118/89 111/121/90 115/186/119
f 145/187/121 140/188/120 115/189/119 110/190/118
f 150/191/122 145/187/121 110/190/118 113/192/117
f 139/109/82 150/193/122 113/194/117 107/110/83
f 82/195/108 83/196/110 154/197/123 135/198/124
f 135/198/124 154/197/123 153/199/125 136/200/126
f 136/200/126 153/199/125 152/201/127 137/202/128
f 137/202/128 152/201/127 151/203/129 138/204/130
f 138/204/130 151/203/129 150/193/122 139/109/82
f 83/205/110 86/206/112 149/207/131 154/208/123
f 154/208/123 149/207/131 148/209/132 153/210/125
f 153/210/125 148/209/132 147/211/133 152/212/127
f 152/212/127 147/211/133 146/213/134 151/214/129
f 151/214/129 146/213/134 145/187/121 150/191/122
f 86/206/112 89/215/114 144/216/135 149/207/131
f 149/207/131 144/216/135 143/217/136 148/209/132
f 148/209/132 143/217/136 142/218/137 147/211/133
f 147/211/133 142/218/137 141/219/138 146/213/134
f 146/213/134 141/219/138 140/188/120 145/187/121
f 89/220/114 106/221/115 129/222/139 144/223/135
f 144/223/135 129/222/139 128/224/140 143/225/136
f 143/225/136 128/224/140 127/226/141 142/227/137
f 142/227/137 127/226/141 126/228/142 141/229/138
f 141/229/138 126/228/142 125/118/89 140/185/120
f 106/221/115 87/230/113 130/231/143 129/222/139
f 129/222/139 130/231/143 131/232/144 128/224/140
f 128/224/140 131/232/144 132/233/145 127/226/141
f 127/226/141 132/233/145 133/234/146 126/228/142
f 126/228/142 133/234/146 134/119/87 125/118/89
f 87/235/113 84/236/111 120/237/147 130/238/143
f 130/238/143 120/237/147 121/239/148 131/240/144
f 131/240/144 121/239/148 122/241/149 132/242/145
f 132/242/145 122/241/149 123/243/150 133/244/146
f 133/244/146 123/243/150 124/112/85 134/116/87
f 84/236/111 81/245/109 85/246/151 120/237/147
f 120/237/147 85/246/151 116/247/152 121/239/148
f 121/239/148 116/247/152 117/248/153 122/241/149
f 122/241/149 117/248/153 118/249/154 123/243/150
f 123/243/150 118/249/154 119/113/81 124/112/85
f 81/250/109 82/195/108 135/198/124 85/251/151
f 85/251/151 135/198/124 136/200/126 116/252/152
f 116/252/152 136/200/126 137/202/128 117/253/153
f 117/253/153 137/202/128 138/204/130 118/254/154
f 118/254/154 138/204/130 139/109/82 119/108/81
