# Blender v2.82 (sub 7) OBJ File: 'tiles_009.blend'
# www.blender.org
mtllib water_00.mtl
v 1.025000 0.007708 -1.025000
v 1.025000 0.007708 1.025000
v -1.025000 0.007708 -1.025000
v -1.025000 0.007708 1.025000
v 1.025000 -0.624375 -1.025000
v 1.025000 -0.624375 1.025000
v -1.025000 -0.624375 -1.025000
v -1.025000 -0.624375 1.025000
vt 0.097389 1.000000
vt 0.000000 1.000000
vt 0.000000 0.666667
vt 0.097389 0.666667
vt 0.194778 1.000000
vt 0.097389 1.000000
vt 0.097389 0.666667
vt 0.194778 0.666667
vt 0.631712 0.000000
vt 0.631712 0.333333
vt 0.315856 0.333333
vt 0.315856 0.000000
vt 0.389556 0.666667
vt 0.486945 0.666667
vt 0.486945 1.000000
vt 0.389556 1.000000
vt 0.781744 0.000000
vt 0.879133 0.000000
vt 0.879133 0.333333
vt 0.781744 0.333333
vt 0.315856 0.333333
vt 0.315856 0.666667
vt 0.000000 0.666667
vt 0.000000 0.333333
vn -0.5773 -0.5773 0.5773
vn -0.5773 0.5773 0.5773
vn -0.5773 0.5773 -0.5773
vn -0.5773 -0.5773 -0.5773
vn 0.5773 0.5773 -0.5773
vn 0.5773 -0.5773 -0.5773
vn 0.5773 0.5773 0.5773
vn 0.5773 -0.5773 0.5773
usemtl Water
s 1
f 8/1/1 4/2/2 3/3/3 7/4/4
f 7/5/4 3/6/3 1/7/5 5/8/6
f 2/9/7 1/10/5 3/11/3 4/12/2
f 5/13/6 1/14/5 2/15/7 6/16/8
f 6/17/8 2/18/7 4/19/2 8/20/1
f 5/21/6 6/22/8 8/23/1 7/24/4
